<?xml version="1.0" encoding="UTF-8" standalone="no"?>
<!DOCTYPE svg PUBLIC "-//W3C//DTD SVG 1.1//EN"
 "http://www.w3.org/Graphics/SVG/1.1/DTD/svg11.dtd">
<!-- Generated by graphviz version 2.38.0 (20140413.2041)
 -->
<!-- Title: G Pages: 1 -->
<svg width="769pt" height="324pt"
 viewBox="0.00 0.00 768.91 324.00" xmlns="http://www.w3.org/2000/svg" xmlns:xlink="http://www.w3.org/1999/xlink">
<g id="graph0" class="graph" transform="scale(1 1) rotate(0) translate(4 320)">
<title>G</title>
<polygon fill="white" stroke="none" points="-4,4 -4,-320 764.908,-320 764.908,4 -4,4"/>
<!-- _bartend -->
<g id="node1" class="node"><title>_bartend</title>
<polygon fill="none" stroke="black" points="296.322,-279.5 296.322,-315.5 365.678,-315.5 365.678,-279.5 296.322,-279.5"/>
<text text-anchor="middle" x="331" y="-304.1" font-family="Bitstream Vera Sans" font-size="8.00"> </text>
<polyline fill="none" stroke="black" points="296.322,-297.5 365.678,-297.5 "/>
<text text-anchor="start" x="304.322" y="-286.1" font-family="Bitstream Vera Sans" font-size="8.00">liquids : string[]</text>
</g>
<!-- _pump -->
<g id="node2" class="node"><title>_pump</title>
<polygon fill="none" stroke="black" points="39.1973,-186.5 39.1973,-242.5 158.803,-242.5 158.803,-186.5 39.1973,-186.5"/>
<text text-anchor="middle" x="99" y="-232.1" font-family="Bitstream Vera Sans" font-size="8.00">pump</text>
<polyline fill="none" stroke="black" points="39.1973,-226.5 158.803,-226.5 "/>
<text text-anchor="start" x="47.1973" y="-216.1" font-family="Bitstream Vera Sans" font-size="8.00">id : int32</text>
<text text-anchor="start" x="47.1973" y="-208.1" font-family="Bitstream Vera Sans" font-size="8.00">gpioPin : int32</text>
<text text-anchor="start" x="47.1973" y="-200.1" font-family="Bitstream Vera Sans" font-size="8.00">timeToVolumeRatioMs : int32</text>
<text text-anchor="start" x="47.1973" y="-192.1" font-family="Bitstream Vera Sans" font-size="8.00">liquid : string</text>
</g>
<!-- _bartend&#45;&gt;_pump -->
<g id="edge7" class="edge"><title>_bartend&#45;&gt;_pump</title>
<path fill="none" stroke="black" d="M296.267,-284.373C262.728,-272.663 210.972,-254.594 168.888,-239.901"/>
<polygon fill="black" stroke="black" points="169.838,-236.525 159.243,-236.533 167.531,-243.134 169.838,-236.525"/>
</g>
<!-- _current -->
<g id="node5" class="node"><title>_current</title>
<polygon fill="none" stroke="black" points="280.531,-194.5 280.531,-234.5 381.469,-234.5 381.469,-194.5 280.531,-194.5"/>
<text text-anchor="middle" x="331" y="-224.1" font-family="Bitstream Vera Sans" font-size="8.00">current</text>
<polyline fill="none" stroke="black" points="280.531,-218.5 381.469,-218.5 "/>
<text text-anchor="start" x="288.531" y="-208.1" font-family="Bitstream Vera Sans" font-size="8.00">percentComplete : int32</text>
<text text-anchor="start" x="288.531" y="-200.1" font-family="Bitstream Vera Sans" font-size="8.00">complete : boolean</text>
</g>
<!-- _bartend&#45;&gt;_current -->
<g id="edge8" class="edge"><title>_bartend&#45;&gt;_current</title>
<path fill="none" stroke="black" d="M331,-279.322C331,-269.295 331,-256.376 331,-244.787"/>
<polygon fill="black" stroke="black" points="334.5,-244.638 331,-234.638 327.5,-244.638 334.5,-244.638"/>
</g>
<!-- _recipe -->
<g id="node13" class="node"><title>_recipe</title>
<polygon fill="none" stroke="black" points="568.541,-190.5 568.541,-238.5 649.459,-238.5 649.459,-190.5 568.541,-190.5"/>
<text text-anchor="middle" x="609" y="-228.1" font-family="Bitstream Vera Sans" font-size="8.00">recipe</text>
<polyline fill="none" stroke="black" points="568.541,-222.5 649.459,-222.5 "/>
<text text-anchor="start" x="576.541" y="-212.1" font-family="Bitstream Vera Sans" font-size="8.00">id : int32</text>
<text text-anchor="start" x="576.541" y="-204.1" font-family="Bitstream Vera Sans" font-size="8.00">name : string</text>
<text text-anchor="start" x="576.541" y="-196.1" font-family="Bitstream Vera Sans" font-size="8.00">description : string</text>
</g>
<!-- _bartend&#45;&gt;_recipe -->
<g id="edge9" class="edge"><title>_bartend&#45;&gt;_recipe</title>
<path fill="none" stroke="black" d="M365.927,-286.323C414.49,-272.174 502.707,-246.47 558.453,-230.228"/>
<polygon fill="black" stroke="black" points="559.506,-233.567 568.128,-227.409 557.548,-226.846 559.506,-233.567"/>
</g>
<!-- _pump_on -->
<g id="node3" class="node"><title>_pump_on</title>
<polygon fill="none" stroke="#b64ff7" points="0,-99.5 0,-135.5 54,-135.5 54,-99.5 0,-99.5"/>
<text text-anchor="middle" x="26.8984" y="-124.1" font-family="Bitstream Vera Sans" font-size="8.00">on (action)</text>
<polyline fill="none" stroke="#b64ff7" points="0,-117.5 53.7969,-117.5 "/>
<text text-anchor="middle" x="26.8984" y="-106.1" font-family="Bitstream Vera Sans" font-size="8.00"> </text>
</g>
<!-- _pump&#45;&gt;_pump_on -->
<g id="edge1" class="edge"><title>_pump&#45;&gt;_pump_on</title>
<path fill="none" stroke="#b64ff7" stroke-dasharray="5,2" d="M78.3677,-186.277C68.2096,-172.874 56.0418,-156.819 46.099,-143.7"/>
<polygon fill="#b64ff7" stroke="#b64ff7" points="48.7596,-141.416 39.93,-135.56 43.1808,-145.644 48.7596,-141.416"/>
</g>
<!-- _pump_off -->
<g id="node4" class="node"><title>_pump_off</title>
<polygon fill="none" stroke="#b64ff7" points="72,-99.5 72,-135.5 126,-135.5 126,-99.5 72,-99.5"/>
<text text-anchor="middle" x="98.8262" y="-124.1" font-family="Bitstream Vera Sans" font-size="8.00">off (action)</text>
<polyline fill="none" stroke="#b64ff7" points="72,-117.5 125.652,-117.5 "/>
<text text-anchor="middle" x="98.8262" y="-106.1" font-family="Bitstream Vera Sans" font-size="8.00"> </text>
</g>
<!-- _pump&#45;&gt;_pump_off -->
<g id="edge2" class="edge"><title>_pump&#45;&gt;_pump_off</title>
<path fill="none" stroke="#b64ff7" stroke-dasharray="5,2" d="M99,-186.277C99,-173.512 99,-158.342 99,-145.594"/>
<polygon fill="#b64ff7" stroke="#b64ff7" points="102.5,-145.56 99,-135.56 95.5001,-145.56 102.5,-145.56"/>
</g>
<!-- _current_stop -->
<g id="node6" class="node"><title>_current_stop</title>
<polygon fill="none" stroke="#b64ff7" points="143.99,-99.5 143.99,-135.5 204.01,-135.5 204.01,-99.5 143.99,-99.5"/>
<text text-anchor="middle" x="174" y="-124.1" font-family="Bitstream Vera Sans" font-size="8.00">stop (action)</text>
<polyline fill="none" stroke="#b64ff7" points="143.99,-117.5 204.01,-117.5 "/>
<text text-anchor="middle" x="174" y="-106.1" font-family="Bitstream Vera Sans" font-size="8.00"> </text>
</g>
<!-- _current&#45;&gt;_current_stop -->
<g id="edge3" class="edge"><title>_current&#45;&gt;_current_stop</title>
<path fill="none" stroke="#b64ff7" stroke-dasharray="5,2" d="M291.145,-194.386C267.762,-182.605 237.994,-166.611 213,-150 209.228,-147.493 205.379,-144.705 201.639,-141.852"/>
<polygon fill="#b64ff7" stroke="#b64ff7" points="203.718,-139.034 193.699,-135.589 199.383,-144.53 203.718,-139.034"/>
</g>
<!-- _current_update -->
<g id="node7" class="node"><title>_current_update</title>
<polygon fill="none" stroke="#4fb32e" points="221.531,-89.5 221.531,-145.5 322.469,-145.5 322.469,-89.5 221.531,-89.5"/>
<text text-anchor="middle" x="272" y="-135.1" font-family="Bitstream Vera Sans" font-size="8.00">update (notification)</text>
<polyline fill="none" stroke="#4fb32e" points="221.531,-129.5 322.469,-129.5 "/>
<text text-anchor="start" x="229.531" y="-119.1" font-family="Bitstream Vera Sans" font-size="8.00">percentComplete : int32</text>
<text text-anchor="start" x="229.531" y="-111.1" font-family="Bitstream Vera Sans" font-size="8.00">complete : boolean</text>
<text text-anchor="start" x="229.531" y="-103.1" font-family="Bitstream Vera Sans" font-size="8.00">manual[…] : </text>
<text text-anchor="start" x="229.531" y="-95.1" font-family="Bitstream Vera Sans" font-size="8.00">auto[…] : </text>
</g>
<!-- _current&#45;&gt;_current_update -->
<g id="edge4" class="edge"><title>_current&#45;&gt;_current_update</title>
<path fill="none" stroke="#4fb32e" stroke-dasharray="5,2" d="M319.06,-194.275C311.934,-182.801 302.658,-167.865 294.227,-154.29"/>
<polygon fill="#4fb32e" stroke="#4fb32e" points="297.09,-152.264 288.84,-145.616 291.143,-155.958 297.09,-152.264"/>
</g>
<!-- _current_auto -->
<g id="node8" class="node"><title>_current_auto</title>
<polygon fill="none" stroke="black" points="340.531,-93.5 340.531,-141.5 441.469,-141.5 441.469,-93.5 340.531,-93.5"/>
<text text-anchor="middle" x="391" y="-131.1" font-family="Bitstream Vera Sans" font-size="8.00">auto</text>
<polyline fill="none" stroke="black" points="340.531,-125.5 441.469,-125.5 "/>
<text text-anchor="start" x="348.531" y="-115.1" font-family="Bitstream Vera Sans" font-size="8.00">id : int32</text>
<text text-anchor="start" x="348.531" y="-107.1" font-family="Bitstream Vera Sans" font-size="8.00">complete : boolean</text>
<text text-anchor="start" x="348.531" y="-99.1" font-family="Bitstream Vera Sans" font-size="8.00">percentComplete : int32</text>
</g>
<!-- _current&#45;&gt;_current_auto -->
<g id="edge10" class="edge"><title>_current&#45;&gt;_current_auto</title>
<path fill="none" stroke="black" d="M343.142,-194.275C351.082,-181.704 361.646,-164.977 370.829,-150.438"/>
<polygon fill="black" stroke="black" points="373.951,-152.048 376.332,-141.724 368.033,-148.31 373.951,-152.048"/>
</g>
<!-- _current_manual -->
<g id="node10" class="node"><title>_current_manual</title>
<polygon fill="none" stroke="black" points="459.199,-97.5 459.199,-137.5 542.801,-137.5 542.801,-97.5 459.199,-97.5"/>
<text text-anchor="middle" x="501" y="-127.1" font-family="Bitstream Vera Sans" font-size="8.00">manual</text>
<polyline fill="none" stroke="black" points="459.199,-121.5 542.801,-121.5 "/>
<text text-anchor="start" x="467.199" y="-111.1" font-family="Bitstream Vera Sans" font-size="8.00">id : int32</text>
<text text-anchor="start" x="467.199" y="-103.1" font-family="Bitstream Vera Sans" font-size="8.00">complete : boolean</text>
</g>
<!-- _current&#45;&gt;_current_manual -->
<g id="edge11" class="edge"><title>_current&#45;&gt;_current_manual</title>
<path fill="none" stroke="black" d="M368.05,-194.498C391.7,-182.18 422.897,-165.58 450,-150 453.912,-147.751 457.962,-145.36 461.991,-142.94"/>
<polygon fill="black" stroke="black" points="463.986,-145.823 470.715,-137.639 460.352,-139.841 463.986,-145.823"/>
</g>
<!-- _current_auto_id__ingredient -->
<g id="node9" class="node"><title>_current_auto_id__ingredient</title>
<polygon fill="none" stroke="black" points="348.092,-0.5 348.092,-48.5 433.908,-48.5 433.908,-0.5 348.092,-0.5"/>
<text text-anchor="middle" x="391" y="-38.1" font-family="Bitstream Vera Sans" font-size="8.00">ingredient</text>
<polyline fill="none" stroke="black" points="348.092,-32.5 433.908,-32.5 "/>
<text text-anchor="start" x="356.092" y="-22.1" font-family="Bitstream Vera Sans" font-size="8.00">liquid : string</text>
<text text-anchor="start" x="356.092" y="-14.1" font-family="Bitstream Vera Sans" font-size="8.00">amount : decimal64</text>
<text text-anchor="start" x="356.092" y="-6.1" font-family="Bitstream Vera Sans" font-size="8.00">weight : int32</text>
</g>
<!-- _current_auto&#45;&gt;_current_auto_id__ingredient -->
<g id="edge12" class="edge"><title>_current_auto&#45;&gt;_current_auto_id__ingredient</title>
<path fill="none" stroke="black" d="M391,-93.0652C391,-82.5823 391,-70.0376 391,-58.6189"/>
<polygon fill="black" stroke="black" points="394.5,-58.5403 391,-48.5403 387.5,-58.5404 394.5,-58.5403"/>
</g>
<!-- _current_manual_done -->
<g id="node11" class="node"><title>_current_manual_done</title>
<polygon fill="none" stroke="#b64ff7" points="460.652,-6.5 460.652,-42.5 523.348,-42.5 523.348,-6.5 460.652,-6.5"/>
<text text-anchor="middle" x="492" y="-31.1" font-family="Bitstream Vera Sans" font-size="8.00">done (action)</text>
<polyline fill="none" stroke="#b64ff7" points="460.652,-24.5 523.348,-24.5 "/>
<text text-anchor="middle" x="492" y="-13.1" font-family="Bitstream Vera Sans" font-size="8.00"> </text>
</g>
<!-- _current_manual&#45;&gt;_current_manual_done -->
<g id="edge5" class="edge"><title>_current_manual&#45;&gt;_current_manual_done</title>
<path fill="none" stroke="#b64ff7" stroke-dasharray="5,2" d="M499.091,-97.2012C497.817,-84.313 496.121,-67.1702 494.708,-52.8785"/>
<polygon fill="#b64ff7" stroke="#b64ff7" points="498.161,-52.23 493.693,-42.6231 491.195,-52.919 498.161,-52.23"/>
</g>
<!-- _current_manual_id__ingredient -->
<g id="node12" class="node"><title>_current_manual_id__ingredient</title>
<polygon fill="none" stroke="black" points="541.092,-0.5 541.092,-48.5 626.908,-48.5 626.908,-0.5 541.092,-0.5"/>
<text text-anchor="middle" x="584" y="-38.1" font-family="Bitstream Vera Sans" font-size="8.00">ingredient</text>
<polyline fill="none" stroke="black" points="541.092,-32.5 626.908,-32.5 "/>
<text text-anchor="start" x="549.092" y="-22.1" font-family="Bitstream Vera Sans" font-size="8.00">liquid : string</text>
<text text-anchor="start" x="549.092" y="-14.1" font-family="Bitstream Vera Sans" font-size="8.00">amount : decimal64</text>
<text text-anchor="start" x="549.092" y="-6.1" font-family="Bitstream Vera Sans" font-size="8.00">weight : int32</text>
</g>
<!-- _current_manual&#45;&gt;_current_manual_id__ingredient -->
<g id="edge13" class="edge"><title>_current_manual&#45;&gt;_current_manual_id__ingredient</title>
<path fill="none" stroke="black" d="M518.602,-97.2012C529.422,-85.3386 543.529,-69.8714 555.871,-56.3407"/>
<polygon fill="black" stroke="black" points="558.742,-58.3867 562.895,-48.6397 553.57,-53.6695 558.742,-58.3867"/>
</g>
<!-- _recipe_make -->
<g id="node14" class="node"><title>_recipe_make</title>
<polygon fill="none" stroke="#b64ff7" points="561.207,-85.5 561.207,-149.5 656.793,-149.5 656.793,-85.5 561.207,-85.5"/>
<text text-anchor="middle" x="609" y="-139.1" font-family="Bitstream Vera Sans" font-size="8.00">make (action)</text>
<polyline fill="none" stroke="#b64ff7" points="561.207,-133.5 656.793,-133.5 "/>
<text text-anchor="middle" x="609" y="-123.1" font-family="Bitstream Vera Sans" font-size="8.00">Input</text>
<polyline fill="none" stroke="#b64ff7" points="561.207,-117.5 656.793,-117.5 "/>
<text text-anchor="start" x="569.207" y="-107.1" font-family="Bitstream Vera Sans" font-size="8.00"> &#160;multiplier : decimal64</text>
<polyline fill="none" stroke="#b64ff7" points="561.207,-101.5 656.793,-101.5 "/>
<text text-anchor="middle" x="609" y="-91.1" font-family="Bitstream Vera Sans" font-size="8.00"> </text>
</g>
<!-- _recipe&#45;&gt;_recipe_make -->
<g id="edge6" class="edge"><title>_recipe&#45;&gt;_recipe_make</title>
<path fill="none" stroke="#b64ff7" stroke-dasharray="5,2" d="M609,-190.017C609,-180.868 609,-170.107 609,-159.749"/>
<polygon fill="#b64ff7" stroke="#b64ff7" points="612.5,-159.6 609,-149.6 605.5,-159.6 612.5,-159.6"/>
</g>
<!-- _recipe_id__ingredient -->
<g id="node15" class="node"><title>_recipe_id__ingredient</title>
<polygon fill="none" stroke="black" points="675.092,-93.5 675.092,-141.5 760.908,-141.5 760.908,-93.5 675.092,-93.5"/>
<text text-anchor="middle" x="718" y="-131.1" font-family="Bitstream Vera Sans" font-size="8.00">ingredient</text>
<polyline fill="none" stroke="black" points="675.092,-125.5 760.908,-125.5 "/>
<text text-anchor="start" x="683.092" y="-115.1" font-family="Bitstream Vera Sans" font-size="8.00">liquid : string</text>
<text text-anchor="start" x="683.092" y="-107.1" font-family="Bitstream Vera Sans" font-size="8.00">amount : decimal64</text>
<text text-anchor="start" x="683.092" y="-99.1" font-family="Bitstream Vera Sans" font-size="8.00">weight : int32</text>
</g>
<!-- _recipe&#45;&gt;_recipe_id__ingredient -->
<g id="edge14" class="edge"><title>_recipe&#45;&gt;_recipe_id__ingredient</title>
<path fill="none" stroke="black" d="M635.664,-190.26C650.048,-177.724 667.968,-162.106 683.413,-148.644"/>
<polygon fill="black" stroke="black" points="685.994,-151.038 691.233,-141.829 681.395,-145.761 685.994,-151.038"/>
</g>
</g>
</svg>
