<?xml version="1.0" encoding="UTF-8" standalone="no"?>
<!DOCTYPE svg PUBLIC "-//W3C//DTD SVG 1.1//EN"
 "http://www.w3.org/Graphics/SVG/1.1/DTD/svg11.dtd">
<!-- Generated by graphviz version 2.38.0 (20140413.2041)
 -->
<!-- Title: G Pages: 1 -->
<svg width="162pt" height="284pt"
 viewBox="0.00 0.00 162.46 284.00" xmlns="http://www.w3.org/2000/svg" xmlns:xlink="http://www.w3.org/1999/xlink">
<g id="graph0" class="graph" transform="scale(1 1) rotate(0) translate(4 280)">
<title>G</title>
<polygon fill="white" stroke="none" points="-4,4 -4,-280 158.457,-280 158.457,4 -4,4"/>
<!-- _restconf -->
<g id="node1" class="node"><title>_restconf</title>
<polygon fill="none" stroke="black" points="10.457,-235.5 10.457,-275.5 144,-275.5 144,-235.5 10.457,-235.5"/>
<text text-anchor="middle" x="77.2285" y="-265.1" font-family="Bitstream Vera Sans" font-size="8.00"> </text>
<polyline fill="none" stroke="black" points="10.457,-259.5 144,-259.5 "/>
<text text-anchor="start" x="18.457" y="-249.1" font-family="Bitstream Vera Sans" font-size="8.00">notifyKeepaliveTimeoutMs : int32</text>
<text text-anchor="start" x="18.457" y="-241.1" font-family="Bitstream Vera Sans" font-size="8.00">debug : boolean</text>
</g>
<!-- _web -->
<g id="node2" class="node"><title>_web</title>
<polygon fill="none" stroke="black" points="34.4727,-150.5 34.4727,-198.5 119.984,-198.5 119.984,-150.5 34.4727,-150.5"/>
<text text-anchor="middle" x="77.2285" y="-188.1" font-family="Bitstream Vera Sans" font-size="8.00">web</text>
<polyline fill="none" stroke="black" points="34.4727,-182.5 119.984,-182.5 "/>
<text text-anchor="start" x="42.4727" y="-172.1" font-family="Bitstream Vera Sans" font-size="8.00">port : string</text>
<text text-anchor="start" x="42.4727" y="-164.1" font-family="Bitstream Vera Sans" font-size="8.00">readTimeout : int32</text>
<text text-anchor="start" x="42.4727" y="-156.1" font-family="Bitstream Vera Sans" font-size="8.00">writeTimeout : int32</text>
</g>
<!-- _restconf&#45;&gt;_web -->
<g id="edge1" class="edge"><title>_restconf&#45;&gt;_web</title>
<path fill="none" stroke="black" d="M77.2285,-235.376C77.2285,-227.434 77.2285,-217.977 77.2285,-208.952"/>
<polygon fill="black" stroke="black" points="80.7286,-208.672 77.2285,-198.672 73.7286,-208.672 80.7286,-208.672"/>
</g>
<!-- _web_tls -->
<g id="node3" class="node"><title>_web_tls</title>
<polygon fill="none" stroke="black" points="34.3301,-77.5 34.3301,-113.5 120.127,-113.5 120.127,-77.5 34.3301,-77.5"/>
<text text-anchor="middle" x="77.2285" y="-102.1" font-family="Bitstream Vera Sans" font-size="8.00">tls</text>
<polyline fill="none" stroke="black" points="34.3301,-95.5 120.127,-95.5 "/>
<text text-anchor="start" x="42.3301" y="-84.1" font-family="Bitstream Vera Sans" font-size="8.00">serverName : string</text>
</g>
<!-- _web&#45;&gt;_web_tls -->
<g id="edge2" class="edge"><title>_web&#45;&gt;_web_tls</title>
<path fill="none" stroke="black" d="M77.2285,-150.397C77.2285,-142.083 77.2285,-132.622 77.2285,-123.972"/>
<polygon fill="black" stroke="black" points="80.7286,-123.954 77.2285,-113.954 73.7286,-123.954 80.7286,-123.954"/>
</g>
<!-- _web_tls_cert -->
<g id="node4" class="node"><title>_web_tls_cert</title>
<polygon fill="none" stroke="black" points="0,-0.5 0,-40.5 68.457,-40.5 68.457,-0.5 0,-0.5"/>
<text text-anchor="middle" x="34.2285" y="-30.1" font-family="Bitstream Vera Sans" font-size="8.00">cert</text>
<polyline fill="none" stroke="black" points="0,-24.5 68.457,-24.5 "/>
<text text-anchor="start" x="8" y="-14.1" font-family="Bitstream Vera Sans" font-size="8.00">certFile : string</text>
<text text-anchor="start" x="8" y="-6.1" font-family="Bitstream Vera Sans" font-size="8.00">keyFile : string</text>
</g>
<!-- _web_tls&#45;&gt;_web_tls_cert -->
<g id="edge3" class="edge"><title>_web_tls&#45;&gt;_web_tls_cert</title>
<path fill="none" stroke="black" d="M67.0381,-77.2C62.1448,-68.8927 56.1588,-58.7305 50.6458,-49.3712"/>
<polygon fill="black" stroke="black" points="53.6473,-47.5705 45.5561,-40.7306 47.6158,-51.1233 53.6473,-47.5705"/>
</g>
<!-- _web_tls_ca -->
<g id="node5" class="node"><title>_web_tls_ca</title>
<polygon fill="none" stroke="black" points="86,-2.5 86,-38.5 154.457,-38.5 154.457,-2.5 86,-2.5"/>
<text text-anchor="middle" x="120.229" y="-27.1" font-family="Bitstream Vera Sans" font-size="8.00">ca</text>
<polyline fill="none" stroke="black" points="86,-20.5 154.457,-20.5 "/>
<text text-anchor="start" x="94" y="-9.1" font-family="Bitstream Vera Sans" font-size="8.00">certFile : string</text>
</g>
<!-- _web_tls&#45;&gt;_web_tls_ca -->
<g id="edge4" class="edge"><title>_web_tls&#45;&gt;_web_tls_ca</title>
<path fill="none" stroke="black" d="M87.4189,-77.2C92.6669,-68.2906 99.1717,-57.2476 105.002,-47.3497"/>
<polygon fill="black" stroke="black" points="108.052,-49.0685 110.111,-38.6758 102.02,-45.5157 108.052,-49.0685"/>
</g>
</g>
</svg>
