<?xml version="1.0" encoding="UTF-8" standalone="no"?>
<!DOCTYPE svg PUBLIC "-//W3C//DTD SVG 1.1//EN"
 "http://www.w3.org/Graphics/SVG/1.1/DTD/svg11.dtd">
<!-- Generated by graphviz version 2.40.1 (20161225.0304)
 -->
<!-- Title: G Pages: 1 -->
<svg width="853pt" height="324pt"
 viewBox="0.00 0.00 852.91 324.00" xmlns="http://www.w3.org/2000/svg" xmlns:xlink="http://www.w3.org/1999/xlink">
<g id="graph0" class="graph" transform="scale(1 1) rotate(0) translate(4 320)">
<title>G</title>
<polygon fill="#ffffff" stroke="transparent" points="-4,4 -4,-320 848.9082,-320 848.9082,4 -4,4"/>
<!-- bartend -->
<g id="node1" class="node">
<title>bartend</title>
<polygon fill="none" stroke="#000000" points="224.3223,-279.5 224.3223,-315.5 293.6777,-315.5 293.6777,-279.5 224.3223,-279.5"/>
<text text-anchor="middle" x="259" y="-304.1" font-family="Bitstream Vera Sans" font-size="8.00" fill="#000000"> </text>
<polyline fill="none" stroke="#000000" points="224.3223,-297.5 293.6777,-297.5 "/>
<text text-anchor="start" x="232.3223" y="-286.1" font-family="Bitstream Vera Sans" font-size="8.00" fill="#000000">liquids : string[]</text>
</g>
<!-- bartend_pump -->
<g id="node2" class="node">
<title>bartend_pump</title>
<polygon fill="none" stroke="#000000" points="39.1973,-186.5 39.1973,-242.5 158.8027,-242.5 158.8027,-186.5 39.1973,-186.5"/>
<text text-anchor="middle" x="99" y="-232.1" font-family="Bitstream Vera Sans" font-size="8.00" fill="#000000">pump[…]</text>
<polyline fill="none" stroke="#000000" points="39.1973,-226.5 158.8027,-226.5 "/>
<text text-anchor="start" x="47.1973" y="-216.1" font-family="Bitstream Vera Sans" font-size="8.00" fill="#000000">id : int32</text>
<text text-anchor="start" x="47.1973" y="-208.1" font-family="Bitstream Vera Sans" font-size="8.00" fill="#000000">gpioPin : int32</text>
<text text-anchor="start" x="47.1973" y="-200.1" font-family="Bitstream Vera Sans" font-size="8.00" fill="#000000">timeToVolumeRatioMs : int32</text>
<text text-anchor="start" x="47.1973" y="-192.1" font-family="Bitstream Vera Sans" font-size="8.00" fill="#000000">liquid : string</text>
</g>
<!-- bartend&#45;&gt;bartend_pump -->
<g id="edge7" class="edge">
<title>bartend&#45;&gt;bartend_pump</title>
<path fill="none" stroke="#000000" d="M224.2824,-279.4902C206.1074,-270.062 183.283,-258.2218 162.112,-247.2393"/>
<polygon fill="#000000" stroke="#000000" points="163.6467,-244.0926 153.1582,-242.5946 160.4233,-250.3063 163.6467,-244.0926"/>
</g>
<!-- bartend_recipe -->
<g id="node5" class="node">
<title>bartend_recipe</title>
<polygon fill="none" stroke="#000000" points="218.3125,-186.5 218.3125,-242.5 299.6875,-242.5 299.6875,-186.5 218.3125,-186.5"/>
<text text-anchor="middle" x="259" y="-232.1" font-family="Bitstream Vera Sans" font-size="8.00" fill="#000000">recipe[…]</text>
<polyline fill="none" stroke="#000000" points="218.3125,-226.5 299.6875,-226.5 "/>
<text text-anchor="start" x="226.3125" y="-216.1" font-family="Bitstream Vera Sans" font-size="8.00" fill="#000000">id : int32</text>
<text text-anchor="start" x="226.3125" y="-208.1" font-family="Bitstream Vera Sans" font-size="8.00" fill="#000000">name : string</text>
<text text-anchor="start" x="226.3125" y="-200.1" font-family="Bitstream Vera Sans" font-size="8.00" fill="#000000">description : string</text>
<text text-anchor="start" x="226.3125" y="-192.1" font-family="Bitstream Vera Sans" font-size="8.00" fill="#000000">madeCount : int32</text>
</g>
<!-- bartend&#45;&gt;bartend_recipe -->
<g id="edge8" class="edge">
<title>bartend&#45;&gt;bartend_recipe</title>
<path fill="none" stroke="#000000" d="M259,-279.4902C259,-271.6614 259,-262.1696 259,-252.8867"/>
<polygon fill="#000000" stroke="#000000" points="262.5001,-252.5946 259,-242.5946 255.5001,-252.5946 262.5001,-252.5946"/>
</g>
<!-- bartend_current -->
<g id="node8" class="node">
<title>bartend_current</title>
<polygon fill="none" stroke="#000000" points="439.5313,-194.5 439.5313,-234.5 540.4688,-234.5 540.4688,-194.5 439.5313,-194.5"/>
<text text-anchor="middle" x="490" y="-224.1" font-family="Bitstream Vera Sans" font-size="8.00" fill="#000000">current</text>
<polyline fill="none" stroke="#000000" points="439.5313,-218.5 540.4688,-218.5 "/>
<text text-anchor="start" x="447.5313" y="-208.1" font-family="Bitstream Vera Sans" font-size="8.00" fill="#000000">percentComplete : int32</text>
<text text-anchor="start" x="447.5313" y="-200.1" font-family="Bitstream Vera Sans" font-size="8.00" fill="#000000">complete : boolean</text>
</g>
<!-- bartend&#45;&gt;bartend_current -->
<g id="edge9" class="edge">
<title>bartend&#45;&gt;bartend_current</title>
<path fill="none" stroke="#000000" d="M293.8331,-284.9842C329.8064,-272.0587 386.632,-251.6409 429.8829,-236.1005"/>
<polygon fill="#000000" stroke="#000000" points="431.2209,-239.3389 439.4483,-232.6636 428.8538,-232.7513 431.2209,-239.3389"/>
</g>
<!-- bartend_pump_on -->
<g id="node3" class="node">
<title>bartend_pump_on</title>
<polygon fill="none" stroke="#b64ff7" points="0,-99.5 0,-135.5 54,-135.5 54,-99.5 0,-99.5"/>
<text text-anchor="middle" x="26.8984" y="-124.1" font-family="Bitstream Vera Sans" font-size="8.00" fill="#000000">on (action)</text>
<polyline fill="none" stroke="#b64ff7" points="0,-117.5 53.7969,-117.5 "/>
<text text-anchor="middle" x="26.8984" y="-106.1" font-family="Bitstream Vera Sans" font-size="8.00" fill="#000000"> </text>
</g>
<!-- bartend_pump&#45;&gt;bartend_pump_on -->
<g id="edge1" class="edge">
<title>bartend_pump&#45;&gt;bartend_pump_on</title>
<path fill="none" stroke="#b64ff7" stroke-dasharray="5,2" d="M78.1746,-186.4436C68.2264,-173.0412 56.3859,-157.0893 46.601,-143.9069"/>
<polygon fill="#b64ff7" stroke="#b64ff7" points="49.2789,-141.6423 40.5083,-135.6987 43.6581,-145.8145 49.2789,-141.6423"/>
</g>
<!-- bartend_pump_off -->
<g id="node4" class="node">
<title>bartend_pump_off</title>
<polygon fill="none" stroke="#b64ff7" points="72,-99.5 72,-135.5 126,-135.5 126,-99.5 72,-99.5"/>
<text text-anchor="middle" x="98.8262" y="-124.1" font-family="Bitstream Vera Sans" font-size="8.00" fill="#000000">off (action)</text>
<polyline fill="none" stroke="#b64ff7" points="72,-117.5 125.6523,-117.5 "/>
<text text-anchor="middle" x="98.8262" y="-106.1" font-family="Bitstream Vera Sans" font-size="8.00" fill="#000000"> </text>
</g>
<!-- bartend_pump&#45;&gt;bartend_pump_off -->
<g id="edge2" class="edge">
<title>bartend_pump&#45;&gt;bartend_pump_off</title>
<path fill="none" stroke="#b64ff7" stroke-dasharray="5,2" d="M99,-186.4436C99,-173.6794 99,-158.6028 99,-145.8084"/>
<polygon fill="#b64ff7" stroke="#b64ff7" points="102.5001,-145.6987 99,-135.6987 95.5001,-145.6987 102.5001,-145.6987"/>
</g>
<!-- bartend_recipe_make -->
<g id="node6" class="node">
<title>bartend_recipe_make</title>
<polygon fill="none" stroke="#b64ff7" points="144.207,-85.5 144.207,-149.5 239.793,-149.5 239.793,-85.5 144.207,-85.5"/>
<text text-anchor="middle" x="192" y="-139.1" font-family="Bitstream Vera Sans" font-size="8.00" fill="#000000">make (action)</text>
<polyline fill="none" stroke="#b64ff7" points="144.207,-133.5 239.793,-133.5 "/>
<text text-anchor="middle" x="192" y="-123.1" font-family="Bitstream Vera Sans" font-size="8.00" fill="#000000">Input</text>
<polyline fill="none" stroke="#b64ff7" points="144.207,-117.5 239.793,-117.5 "/>
<text text-anchor="start" x="152.207" y="-107.1" font-family="Bitstream Vera Sans" font-size="8.00" fill="#000000"> &#160;multiplier : decimal64</text>
<polyline fill="none" stroke="#b64ff7" points="144.207,-101.5 239.793,-101.5 "/>
<text text-anchor="middle" x="192" y="-91.1" font-family="Bitstream Vera Sans" font-size="8.00" fill="#000000"> </text>
</g>
<!-- bartend_recipe&#45;&gt;bartend_recipe_make -->
<g id="edge3" class="edge">
<title>bartend_recipe&#45;&gt;bartend_recipe_make</title>
<path fill="none" stroke="#b64ff7" stroke-dasharray="5,2" d="M239.6208,-186.4436C233.4632,-177.5287 226.5264,-167.4859 219.8917,-157.8805"/>
<polygon fill="#b64ff7" stroke="#b64ff7" points="222.7292,-155.8301 214.1661,-149.5912 216.9696,-159.8084 222.7292,-155.8301"/>
</g>
<!-- bartend_recipe_ingredient -->
<g id="node7" class="node">
<title>bartend_recipe_ingredient</title>
<polygon fill="none" stroke="#000000" points="258.0918,-93.5 258.0918,-141.5 343.9082,-141.5 343.9082,-93.5 258.0918,-93.5"/>
<text text-anchor="middle" x="301" y="-131.1" font-family="Bitstream Vera Sans" font-size="8.00" fill="#000000">ingredient[…]</text>
<polyline fill="none" stroke="#000000" points="258.0918,-125.5 343.9082,-125.5 "/>
<text text-anchor="start" x="266.0918" y="-115.1" font-family="Bitstream Vera Sans" font-size="8.00" fill="#000000">liquid : string</text>
<text text-anchor="start" x="266.0918" y="-107.1" font-family="Bitstream Vera Sans" font-size="8.00" fill="#000000">amount : decimal64</text>
<text text-anchor="start" x="266.0918" y="-99.1" font-family="Bitstream Vera Sans" font-size="8.00" fill="#000000">weight : int32</text>
</g>
<!-- bartend_recipe&#45;&gt;bartend_recipe_ingredient -->
<g id="edge10" class="edge">
<title>bartend_recipe&#45;&gt;bartend_recipe_ingredient</title>
<path fill="none" stroke="#000000" d="M271.1481,-186.4436C275.9557,-175.3405 281.5208,-162.4877 286.5341,-150.9093"/>
<polygon fill="#000000" stroke="#000000" points="289.8252,-152.117 290.5868,-141.5496 283.4015,-149.3356 289.8252,-152.117"/>
</g>
<!-- bartend_current_stop -->
<g id="node9" class="node">
<title>bartend_current_stop</title>
<polygon fill="none" stroke="#b64ff7" points="361.9902,-99.5 361.9902,-135.5 422.0098,-135.5 422.0098,-99.5 361.9902,-99.5"/>
<text text-anchor="middle" x="392" y="-124.1" font-family="Bitstream Vera Sans" font-size="8.00" fill="#000000">stop (action)</text>
<polyline fill="none" stroke="#b64ff7" points="361.9902,-117.5 422.0098,-117.5 "/>
<text text-anchor="middle" x="392" y="-106.1" font-family="Bitstream Vera Sans" font-size="8.00" fill="#000000"> </text>
</g>
<!-- bartend_current&#45;&gt;bartend_current_stop -->
<g id="edge4" class="edge">
<title>bartend_current&#45;&gt;bartend_current_stop</title>
<path fill="none" stroke="#b64ff7" stroke-dasharray="5,2" d="M469.6943,-194.4015C454.5255,-179.3875 433.6921,-158.7667 417.4169,-142.6575"/>
<polygon fill="#b64ff7" stroke="#b64ff7" points="419.866,-140.1571 410.2966,-135.6099 414.9417,-145.1321 419.866,-140.1571"/>
</g>
<!-- bartend_current_update -->
<g id="node10" class="node">
<title>bartend_current_update</title>
<polygon fill="none" stroke="#4fb32e" points="439.5313,-89.5 439.5313,-145.5 540.4688,-145.5 540.4688,-89.5 439.5313,-89.5"/>
<text text-anchor="middle" x="490" y="-135.1" font-family="Bitstream Vera Sans" font-size="8.00" fill="#000000">update (notification)</text>
<polyline fill="none" stroke="#4fb32e" points="439.5313,-129.5 540.4688,-129.5 "/>
<text text-anchor="start" x="447.5313" y="-119.1" font-family="Bitstream Vera Sans" font-size="8.00" fill="#000000">percentComplete : int32</text>
<text text-anchor="start" x="447.5313" y="-111.1" font-family="Bitstream Vera Sans" font-size="8.00" fill="#000000">complete : boolean</text>
<text text-anchor="start" x="447.5313" y="-103.1" font-family="Bitstream Vera Sans" font-size="8.00" fill="#000000">manual[…] : </text>
<text text-anchor="start" x="447.5313" y="-95.1" font-family="Bitstream Vera Sans" font-size="8.00" fill="#000000">auto[…] : </text>
</g>
<!-- bartend_current&#45;&gt;bartend_current_update -->
<g id="edge5" class="edge">
<title>bartend_current&#45;&gt;bartend_current_update</title>
<path fill="none" stroke="#4fb32e" stroke-dasharray="5,2" d="M490,-194.4015C490,-183.2797 490,-169.0814 490,-155.9193"/>
<polygon fill="#4fb32e" stroke="#4fb32e" points="493.5001,-155.6643 490,-145.6643 486.5001,-155.6643 493.5001,-155.6643"/>
</g>
<!-- bartend_current_auto -->
<g id="node11" class="node">
<title>bartend_current_auto</title>
<polygon fill="none" stroke="#000000" points="558.5313,-93.5 558.5313,-141.5 659.4688,-141.5 659.4688,-93.5 558.5313,-93.5"/>
<text text-anchor="middle" x="609" y="-131.1" font-family="Bitstream Vera Sans" font-size="8.00" fill="#000000">auto[…]</text>
<polyline fill="none" stroke="#000000" points="558.5313,-125.5 659.4688,-125.5 "/>
<text text-anchor="start" x="566.5313" y="-115.1" font-family="Bitstream Vera Sans" font-size="8.00" fill="#000000">id : int32</text>
<text text-anchor="start" x="566.5313" y="-107.1" font-family="Bitstream Vera Sans" font-size="8.00" fill="#000000">complete : boolean</text>
<text text-anchor="start" x="566.5313" y="-99.1" font-family="Bitstream Vera Sans" font-size="8.00" fill="#000000">percentComplete : int32</text>
</g>
<!-- bartend_current&#45;&gt;bartend_current_auto -->
<g id="edge11" class="edge">
<title>bartend_current&#45;&gt;bartend_current_auto</title>
<path fill="none" stroke="#000000" d="M514.6569,-194.4015C530.9509,-181.1199 552.6275,-163.4507 571.0937,-148.3984"/>
<polygon fill="#000000" stroke="#000000" points="573.7815,-150.723 579.3213,-141.6919 569.3588,-145.2972 573.7815,-150.723"/>
</g>
<!-- bartend_current_manual -->
<g id="node13" class="node">
<title>bartend_current_manual</title>
<polygon fill="none" stroke="#000000" points="677.1992,-97.5 677.1992,-137.5 760.8008,-137.5 760.8008,-97.5 677.1992,-97.5"/>
<text text-anchor="middle" x="719" y="-127.1" font-family="Bitstream Vera Sans" font-size="8.00" fill="#000000">manual[…]</text>
<polyline fill="none" stroke="#000000" points="677.1992,-121.5 760.8008,-121.5 "/>
<text text-anchor="start" x="685.1992" y="-111.1" font-family="Bitstream Vera Sans" font-size="8.00" fill="#000000">id : int32</text>
<text text-anchor="start" x="685.1992" y="-103.1" font-family="Bitstream Vera Sans" font-size="8.00" fill="#000000">complete : boolean</text>
</g>
<!-- bartend_current&#45;&gt;bartend_current_manual -->
<g id="edge12" class="edge">
<title>bartend_current&#45;&gt;bartend_current_manual</title>
<path fill="none" stroke="#000000" d="M540.7033,-199.4159C576.9986,-187.8347 626.5683,-170.3986 668,-150 672.3624,-147.8522 676.8155,-145.4179 681.1837,-142.871"/>
<polygon fill="#000000" stroke="#000000" points="683.2384,-145.7183 689.9747,-137.5407 679.6091,-139.7327 683.2384,-145.7183"/>
</g>
<!-- bartend_current_auto_ingredient -->
<g id="node12" class="node">
<title>bartend_current_auto_ingredient</title>
<polygon fill="none" stroke="#000000" points="566.0918,-.5 566.0918,-48.5 651.9082,-48.5 651.9082,-.5 566.0918,-.5"/>
<text text-anchor="middle" x="609" y="-38.1" font-family="Bitstream Vera Sans" font-size="8.00" fill="#000000">ingredient</text>
<polyline fill="none" stroke="#000000" points="566.0918,-32.5 651.9082,-32.5 "/>
<text text-anchor="start" x="574.0918" y="-22.1" font-family="Bitstream Vera Sans" font-size="8.00" fill="#000000">liquid : string</text>
<text text-anchor="start" x="574.0918" y="-14.1" font-family="Bitstream Vera Sans" font-size="8.00" fill="#000000">amount : decimal64</text>
<text text-anchor="start" x="574.0918" y="-6.1" font-family="Bitstream Vera Sans" font-size="8.00" fill="#000000">weight : int32</text>
</g>
<!-- bartend_current_auto&#45;&gt;bartend_current_auto_ingredient -->
<g id="edge13" class="edge">
<title>bartend_current_auto&#45;&gt;bartend_current_auto_ingredient</title>
<path fill="none" stroke="#000000" d="M609,-93.0653C609,-82.5996 609,-70.1926 609,-58.8287"/>
<polygon fill="#000000" stroke="#000000" points="612.5001,-58.7714 609,-48.7715 605.5001,-58.7715 612.5001,-58.7714"/>
</g>
<!-- bartend_current_manual_done -->
<g id="node14" class="node">
<title>bartend_current_manual_done</title>
<polygon fill="none" stroke="#b64ff7" points="678.6523,-6.5 678.6523,-42.5 741.3477,-42.5 741.3477,-6.5 678.6523,-6.5"/>
<text text-anchor="middle" x="710" y="-31.1" font-family="Bitstream Vera Sans" font-size="8.00" fill="#000000">done (action)</text>
<polyline fill="none" stroke="#b64ff7" points="678.6523,-24.5 741.3477,-24.5 "/>
<text text-anchor="middle" x="710" y="-13.1" font-family="Bitstream Vera Sans" font-size="8.00" fill="#000000"> </text>
</g>
<!-- bartend_current_manual&#45;&gt;bartend_current_manual_done -->
<g id="edge6" class="edge">
<title>bartend_current_manual&#45;&gt;bartend_current_manual_done</title>
<path fill="none" stroke="#b64ff7" stroke-dasharray="5,2" d="M717.0471,-97.3204C715.7947,-84.3789 714.1499,-67.3818 712.7643,-53.0641"/>
<polygon fill="#b64ff7" stroke="#b64ff7" points="716.2131,-52.3653 711.766,-42.749 709.2456,-53.0397 716.2131,-52.3653"/>
</g>
<!-- bartend_current_manual_ingredient -->
<g id="node15" class="node">
<title>bartend_current_manual_ingredient</title>
<polygon fill="none" stroke="#000000" points="759.0918,-.5 759.0918,-48.5 844.9082,-48.5 844.9082,-.5 759.0918,-.5"/>
<text text-anchor="middle" x="802" y="-38.1" font-family="Bitstream Vera Sans" font-size="8.00" fill="#000000">ingredient</text>
<polyline fill="none" stroke="#000000" points="759.0918,-32.5 844.9082,-32.5 "/>
<text text-anchor="start" x="767.0918" y="-22.1" font-family="Bitstream Vera Sans" font-size="8.00" fill="#000000">liquid : string</text>
<text text-anchor="start" x="767.0918" y="-14.1" font-family="Bitstream Vera Sans" font-size="8.00" fill="#000000">amount : decimal64</text>
<text text-anchor="start" x="767.0918" y="-6.1" font-family="Bitstream Vera Sans" font-size="8.00" fill="#000000">weight : int32</text>
</g>
<!-- bartend_current_manual&#45;&gt;bartend_current_manual_ingredient -->
<g id="edge14" class="edge">
<title>bartend_current_manual&#45;&gt;bartend_current_manual_ingredient</title>
<path fill="none" stroke="#000000" d="M737.0098,-97.3204C747.6911,-85.3522 761.4679,-69.9155 773.5863,-56.337"/>
<polygon fill="#000000" stroke="#000000" points="776.4466,-58.3886 780.4939,-48.5972 771.224,-53.7276 776.4466,-58.3886"/>
</g>
</g>
</svg>
