<?xml version="1.0" encoding="UTF-8" standalone="no"?>
<!DOCTYPE svg PUBLIC "-//W3C//DTD SVG 1.1//EN"
 "http://www.w3.org/Graphics/SVG/1.1/DTD/svg11.dtd">
<!-- Generated by graphviz version 2.38.0 (20140413.2041)
 -->
<!-- Title: G Pages: 1 -->
<svg width="853pt" height="324pt"
 viewBox="0.00 0.00 852.91 324.00" xmlns="http://www.w3.org/2000/svg" xmlns:xlink="http://www.w3.org/1999/xlink">
<g id="graph0" class="graph" transform="scale(1 1) rotate(0) translate(4 320)">
<title>G</title>
<polygon fill="white" stroke="none" points="-4,4 -4,-320 848.908,-320 848.908,4 -4,4"/>
<!-- bartend -->
<g id="node1" class="node"><title>bartend</title>
<polygon fill="none" stroke="black" points="224.322,-279.5 224.322,-315.5 293.678,-315.5 293.678,-279.5 224.322,-279.5"/>
<text text-anchor="middle" x="259" y="-304.1" font-family="Bitstream Vera Sans" font-size="8.00"> </text>
<polyline fill="none" stroke="black" points="224.322,-297.5 293.678,-297.5 "/>
<text text-anchor="start" x="232.322" y="-286.1" font-family="Bitstream Vera Sans" font-size="8.00">liquids : string[]</text>
</g>
<!-- bartend_pump -->
<g id="node2" class="node"><title>bartend_pump</title>
<polygon fill="none" stroke="black" points="39.1973,-186.5 39.1973,-242.5 158.803,-242.5 158.803,-186.5 39.1973,-186.5"/>
<text text-anchor="middle" x="99" y="-232.1" font-family="Bitstream Vera Sans" font-size="8.00">pump[…]</text>
<polyline fill="none" stroke="black" points="39.1973,-226.5 158.803,-226.5 "/>
<text text-anchor="start" x="47.1973" y="-216.1" font-family="Bitstream Vera Sans" font-size="8.00">id : int32</text>
<text text-anchor="start" x="47.1973" y="-208.1" font-family="Bitstream Vera Sans" font-size="8.00">gpioPin : int32</text>
<text text-anchor="start" x="47.1973" y="-200.1" font-family="Bitstream Vera Sans" font-size="8.00">timeToVolumeRatioMs : int32</text>
<text text-anchor="start" x="47.1973" y="-192.1" font-family="Bitstream Vera Sans" font-size="8.00">liquid : string</text>
</g>
<!-- bartend&#45;&gt;bartend_pump -->
<g id="edge7" class="edge"><title>bartend&#45;&gt;bartend_pump</title>
<path fill="none" stroke="black" d="M225.068,-279.322C206.607,-269.976 183.181,-258.117 161.546,-247.164"/>
<polygon fill="black" stroke="black" points="162.906,-243.929 152.403,-242.535 159.744,-250.175 162.906,-243.929"/>
</g>
<!-- bartend_recipe -->
<g id="node5" class="node"><title>bartend_recipe</title>
<polygon fill="none" stroke="black" points="218.312,-186.5 218.312,-242.5 299.688,-242.5 299.688,-186.5 218.312,-186.5"/>
<text text-anchor="middle" x="259" y="-232.1" font-family="Bitstream Vera Sans" font-size="8.00">recipe[…]</text>
<polyline fill="none" stroke="black" points="218.312,-226.5 299.688,-226.5 "/>
<text text-anchor="start" x="226.312" y="-216.1" font-family="Bitstream Vera Sans" font-size="8.00">id : int32</text>
<text text-anchor="start" x="226.312" y="-208.1" font-family="Bitstream Vera Sans" font-size="8.00">name : string</text>
<text text-anchor="start" x="226.312" y="-200.1" font-family="Bitstream Vera Sans" font-size="8.00">description : string</text>
<text text-anchor="start" x="226.312" y="-192.1" font-family="Bitstream Vera Sans" font-size="8.00">madeCount : int32</text>
</g>
<!-- bartend&#45;&gt;bartend_recipe -->
<g id="edge8" class="edge"><title>bartend&#45;&gt;bartend_recipe</title>
<path fill="none" stroke="black" d="M259,-279.322C259,-271.562 259,-262.068 259,-252.8"/>
<polygon fill="black" stroke="black" points="262.5,-252.535 259,-242.535 255.5,-252.535 262.5,-252.535"/>
</g>
<!-- bartend_current -->
<g id="node8" class="node"><title>bartend_current</title>
<polygon fill="none" stroke="black" points="439.531,-194.5 439.531,-234.5 540.469,-234.5 540.469,-194.5 439.531,-194.5"/>
<text text-anchor="middle" x="490" y="-224.1" font-family="Bitstream Vera Sans" font-size="8.00">current</text>
<polyline fill="none" stroke="black" points="439.531,-218.5 540.469,-218.5 "/>
<text text-anchor="start" x="447.531" y="-208.1" font-family="Bitstream Vera Sans" font-size="8.00">percentComplete : int32</text>
<text text-anchor="start" x="447.531" y="-200.1" font-family="Bitstream Vera Sans" font-size="8.00">complete : boolean</text>
</g>
<!-- bartend&#45;&gt;bartend_current -->
<g id="edge9" class="edge"><title>bartend&#45;&gt;bartend_current</title>
<path fill="none" stroke="black" d="M293.833,-284.286C329.806,-271.672 386.632,-251.746 429.883,-236.58"/>
<polygon fill="black" stroke="black" points="431.17,-239.838 439.448,-233.226 428.853,-233.232 431.17,-239.838"/>
</g>
<!-- bartend_pump_on -->
<g id="node3" class="node"><title>bartend_pump_on</title>
<polygon fill="none" stroke="#b64ff7" points="0,-99.5 0,-135.5 54,-135.5 54,-99.5 0,-99.5"/>
<text text-anchor="middle" x="26.8984" y="-124.1" font-family="Bitstream Vera Sans" font-size="8.00">on (action)</text>
<polyline fill="none" stroke="#b64ff7" points="0,-117.5 53.7969,-117.5 "/>
<text text-anchor="middle" x="26.8984" y="-106.1" font-family="Bitstream Vera Sans" font-size="8.00"> </text>
</g>
<!-- bartend_pump&#45;&gt;bartend_pump_on -->
<g id="edge1" class="edge"><title>bartend_pump&#45;&gt;bartend_pump_on</title>
<path fill="none" stroke="#b64ff7" stroke-dasharray="5,2" d="M78.3677,-186.277C68.2096,-172.874 56.0418,-156.819 46.099,-143.7"/>
<polygon fill="#b64ff7" stroke="#b64ff7" points="48.7596,-141.416 39.93,-135.56 43.1808,-145.644 48.7596,-141.416"/>
</g>
<!-- bartend_pump_off -->
<g id="node4" class="node"><title>bartend_pump_off</title>
<polygon fill="none" stroke="#b64ff7" points="72,-99.5 72,-135.5 126,-135.5 126,-99.5 72,-99.5"/>
<text text-anchor="middle" x="98.8262" y="-124.1" font-family="Bitstream Vera Sans" font-size="8.00">off (action)</text>
<polyline fill="none" stroke="#b64ff7" points="72,-117.5 125.652,-117.5 "/>
<text text-anchor="middle" x="98.8262" y="-106.1" font-family="Bitstream Vera Sans" font-size="8.00"> </text>
</g>
<!-- bartend_pump&#45;&gt;bartend_pump_off -->
<g id="edge2" class="edge"><title>bartend_pump&#45;&gt;bartend_pump_off</title>
<path fill="none" stroke="#b64ff7" stroke-dasharray="5,2" d="M99,-186.277C99,-173.512 99,-158.342 99,-145.594"/>
<polygon fill="#b64ff7" stroke="#b64ff7" points="102.5,-145.56 99,-135.56 95.5001,-145.56 102.5,-145.56"/>
</g>
<!-- bartend_recipe_make -->
<g id="node6" class="node"><title>bartend_recipe_make</title>
<polygon fill="none" stroke="#b64ff7" points="144.207,-85.5 144.207,-149.5 239.793,-149.5 239.793,-85.5 144.207,-85.5"/>
<text text-anchor="middle" x="192" y="-139.1" font-family="Bitstream Vera Sans" font-size="8.00">make (action)</text>
<polyline fill="none" stroke="#b64ff7" points="144.207,-133.5 239.793,-133.5 "/>
<text text-anchor="middle" x="192" y="-123.1" font-family="Bitstream Vera Sans" font-size="8.00">Input</text>
<polyline fill="none" stroke="#b64ff7" points="144.207,-117.5 239.793,-117.5 "/>
<text text-anchor="start" x="152.207" y="-107.1" font-family="Bitstream Vera Sans" font-size="8.00"> &#160;multiplier : decimal64</text>
<polyline fill="none" stroke="#b64ff7" points="144.207,-101.5 239.793,-101.5 "/>
<text text-anchor="middle" x="192" y="-91.1" font-family="Bitstream Vera Sans" font-size="8.00"> </text>
</g>
<!-- bartend_recipe&#45;&gt;bartend_recipe_make -->
<g id="edge3" class="edge"><title>bartend_recipe&#45;&gt;bartend_recipe_make</title>
<path fill="none" stroke="#b64ff7" stroke-dasharray="5,2" d="M239.8,-186.277C233.58,-177.456 226.549,-167.487 219.831,-157.962"/>
<polygon fill="#b64ff7" stroke="#b64ff7" points="222.661,-155.901 214.037,-149.746 216.94,-159.936 222.661,-155.901"/>
</g>
<!-- bartend_recipe_ingredient -->
<g id="node7" class="node"><title>bartend_recipe_ingredient</title>
<polygon fill="none" stroke="black" points="258.092,-93.5 258.092,-141.5 343.908,-141.5 343.908,-93.5 258.092,-93.5"/>
<text text-anchor="middle" x="301" y="-131.1" font-family="Bitstream Vera Sans" font-size="8.00">ingredient[…]</text>
<polyline fill="none" stroke="black" points="258.092,-125.5 343.908,-125.5 "/>
<text text-anchor="start" x="266.092" y="-115.1" font-family="Bitstream Vera Sans" font-size="8.00">liquid : string</text>
<text text-anchor="start" x="266.092" y="-107.1" font-family="Bitstream Vera Sans" font-size="8.00">amount : decimal64</text>
<text text-anchor="start" x="266.092" y="-99.1" font-family="Bitstream Vera Sans" font-size="8.00">weight : int32</text>
</g>
<!-- bartend_recipe&#45;&gt;bartend_recipe_ingredient -->
<g id="edge10" class="edge"><title>bartend_recipe&#45;&gt;bartend_recipe_ingredient</title>
<path fill="none" stroke="black" d="M271.036,-186.277C275.921,-175.225 281.604,-162.371 286.699,-150.846"/>
<polygon fill="black" stroke="black" points="289.968,-152.108 290.811,-141.547 283.566,-149.278 289.968,-152.108"/>
</g>
<!-- bartend_current_stop -->
<g id="node9" class="node"><title>bartend_current_stop</title>
<polygon fill="none" stroke="#b64ff7" points="361.99,-99.5 361.99,-135.5 422.01,-135.5 422.01,-99.5 361.99,-99.5"/>
<text text-anchor="middle" x="392" y="-124.1" font-family="Bitstream Vera Sans" font-size="8.00">stop (action)</text>
<polyline fill="none" stroke="#b64ff7" points="361.99,-117.5 422.01,-117.5 "/>
<text text-anchor="middle" x="392" y="-106.1" font-family="Bitstream Vera Sans" font-size="8.00"> </text>
</g>
<!-- bartend_current&#45;&gt;bartend_current_stop -->
<g id="edge4" class="edge"><title>bartend_current&#45;&gt;bartend_current_stop</title>
<path fill="none" stroke="#b64ff7" stroke-dasharray="5,2" d="M470.168,-194.275C454.842,-179.418 433.529,-158.758 417.029,-142.763"/>
<polygon fill="#b64ff7" stroke="#b64ff7" points="419.441,-140.227 409.825,-135.78 414.569,-145.253 419.441,-140.227"/>
</g>
<!-- bartend_current_update -->
<g id="node10" class="node"><title>bartend_current_update</title>
<polygon fill="none" stroke="#4fb32e" points="439.531,-89.5 439.531,-145.5 540.469,-145.5 540.469,-89.5 439.531,-89.5"/>
<text text-anchor="middle" x="490" y="-135.1" font-family="Bitstream Vera Sans" font-size="8.00">update (notification)</text>
<polyline fill="none" stroke="#4fb32e" points="439.531,-129.5 540.469,-129.5 "/>
<text text-anchor="start" x="447.531" y="-119.1" font-family="Bitstream Vera Sans" font-size="8.00">percentComplete : int32</text>
<text text-anchor="start" x="447.531" y="-111.1" font-family="Bitstream Vera Sans" font-size="8.00">complete : boolean</text>
<text text-anchor="start" x="447.531" y="-103.1" font-family="Bitstream Vera Sans" font-size="8.00">manual[…] : </text>
<text text-anchor="start" x="447.531" y="-95.1" font-family="Bitstream Vera Sans" font-size="8.00">auto[…] : </text>
</g>
<!-- bartend_current&#45;&gt;bartend_current_update -->
<g id="edge5" class="edge"><title>bartend_current&#45;&gt;bartend_current_update</title>
<path fill="none" stroke="#4fb32e" stroke-dasharray="5,2" d="M490,-194.275C490,-183.238 490,-168.998 490,-155.847"/>
<polygon fill="#4fb32e" stroke="#4fb32e" points="493.5,-155.616 490,-145.616 486.5,-155.616 493.5,-155.616"/>
</g>
<!-- bartend_current_auto -->
<g id="node11" class="node"><title>bartend_current_auto</title>
<polygon fill="none" stroke="black" points="558.531,-93.5 558.531,-141.5 659.469,-141.5 659.469,-93.5 558.531,-93.5"/>
<text text-anchor="middle" x="609" y="-131.1" font-family="Bitstream Vera Sans" font-size="8.00">auto[…]</text>
<polyline fill="none" stroke="black" points="558.531,-125.5 659.469,-125.5 "/>
<text text-anchor="start" x="566.531" y="-115.1" font-family="Bitstream Vera Sans" font-size="8.00">id : int32</text>
<text text-anchor="start" x="566.531" y="-107.1" font-family="Bitstream Vera Sans" font-size="8.00">complete : boolean</text>
<text text-anchor="start" x="566.531" y="-99.1" font-family="Bitstream Vera Sans" font-size="8.00">percentComplete : int32</text>
</g>
<!-- bartend_current&#45;&gt;bartend_current_auto -->
<g id="edge11" class="edge"><title>bartend_current&#45;&gt;bartend_current_auto</title>
<path fill="none" stroke="black" d="M514.081,-194.275C530.72,-180.992 553.17,-163.07 572.058,-147.991"/>
<polygon fill="black" stroke="black" points="574.277,-150.699 579.908,-141.724 569.91,-145.228 574.277,-150.699"/>
</g>
<!-- bartend_current_manual -->
<g id="node13" class="node"><title>bartend_current_manual</title>
<polygon fill="none" stroke="black" points="677.199,-97.5 677.199,-137.5 760.801,-137.5 760.801,-97.5 677.199,-97.5"/>
<text text-anchor="middle" x="719" y="-127.1" font-family="Bitstream Vera Sans" font-size="8.00">manual[…]</text>
<polyline fill="none" stroke="black" points="677.199,-121.5 760.801,-121.5 "/>
<text text-anchor="start" x="685.199" y="-111.1" font-family="Bitstream Vera Sans" font-size="8.00">id : int32</text>
<text text-anchor="start" x="685.199" y="-103.1" font-family="Bitstream Vera Sans" font-size="8.00">complete : boolean</text>
</g>
<!-- bartend_current&#45;&gt;bartend_current_manual -->
<g id="edge12" class="edge"><title>bartend_current&#45;&gt;bartend_current_manual</title>
<path fill="none" stroke="black" d="M540.631,-198.58C576.892,-187.144 626.45,-169.967 668,-150 672.573,-147.802 677.253,-145.3 681.835,-142.687"/>
<polygon fill="black" stroke="black" points="683.644,-145.684 690.469,-137.581 680.08,-139.659 683.644,-145.684"/>
</g>
<!-- bartend_current_auto_ingredient -->
<g id="node12" class="node"><title>bartend_current_auto_ingredient</title>
<polygon fill="none" stroke="black" points="566.092,-0.5 566.092,-48.5 651.908,-48.5 651.908,-0.5 566.092,-0.5"/>
<text text-anchor="middle" x="609" y="-38.1" font-family="Bitstream Vera Sans" font-size="8.00">ingredient</text>
<polyline fill="none" stroke="black" points="566.092,-32.5 651.908,-32.5 "/>
<text text-anchor="start" x="574.092" y="-22.1" font-family="Bitstream Vera Sans" font-size="8.00">liquid : string</text>
<text text-anchor="start" x="574.092" y="-14.1" font-family="Bitstream Vera Sans" font-size="8.00">amount : decimal64</text>
<text text-anchor="start" x="574.092" y="-6.1" font-family="Bitstream Vera Sans" font-size="8.00">weight : int32</text>
</g>
<!-- bartend_current_auto&#45;&gt;bartend_current_auto_ingredient -->
<g id="edge13" class="edge"><title>bartend_current_auto&#45;&gt;bartend_current_auto_ingredient</title>
<path fill="none" stroke="black" d="M609,-93.0652C609,-82.5823 609,-70.0376 609,-58.6189"/>
<polygon fill="black" stroke="black" points="612.5,-58.5403 609,-48.5403 605.5,-58.5404 612.5,-58.5403"/>
</g>
<!-- bartend_current_manual_done -->
<g id="node14" class="node"><title>bartend_current_manual_done</title>
<polygon fill="none" stroke="#b64ff7" points="678.652,-6.5 678.652,-42.5 741.348,-42.5 741.348,-6.5 678.652,-6.5"/>
<text text-anchor="middle" x="710" y="-31.1" font-family="Bitstream Vera Sans" font-size="8.00">done (action)</text>
<polyline fill="none" stroke="#b64ff7" points="678.652,-24.5 741.348,-24.5 "/>
<text text-anchor="middle" x="710" y="-13.1" font-family="Bitstream Vera Sans" font-size="8.00"> </text>
</g>
<!-- bartend_current_manual&#45;&gt;bartend_current_manual_done -->
<g id="edge6" class="edge"><title>bartend_current_manual&#45;&gt;bartend_current_manual_done</title>
<path fill="none" stroke="#b64ff7" stroke-dasharray="5,2" d="M717.091,-97.2012C715.817,-84.313 714.121,-67.1702 712.708,-52.8785"/>
<polygon fill="#b64ff7" stroke="#b64ff7" points="716.161,-52.23 711.693,-42.6231 709.195,-52.919 716.161,-52.23"/>
</g>
<!-- bartend_current_manual_ingredient -->
<g id="node15" class="node"><title>bartend_current_manual_ingredient</title>
<polygon fill="none" stroke="black" points="759.092,-0.5 759.092,-48.5 844.908,-48.5 844.908,-0.5 759.092,-0.5"/>
<text text-anchor="middle" x="802" y="-38.1" font-family="Bitstream Vera Sans" font-size="8.00">ingredient</text>
<polyline fill="none" stroke="black" points="759.092,-32.5 844.908,-32.5 "/>
<text text-anchor="start" x="767.092" y="-22.1" font-family="Bitstream Vera Sans" font-size="8.00">liquid : string</text>
<text text-anchor="start" x="767.092" y="-14.1" font-family="Bitstream Vera Sans" font-size="8.00">amount : decimal64</text>
<text text-anchor="start" x="767.092" y="-6.1" font-family="Bitstream Vera Sans" font-size="8.00">weight : int32</text>
</g>
<!-- bartend_current_manual&#45;&gt;bartend_current_manual_ingredient -->
<g id="edge14" class="edge"><title>bartend_current_manual&#45;&gt;bartend_current_manual_ingredient</title>
<path fill="none" stroke="black" d="M736.602,-97.2012C747.422,-85.3386 761.529,-69.8714 773.871,-56.3407"/>
<polygon fill="black" stroke="black" points="776.742,-58.3867 780.895,-48.6397 771.57,-53.6695 776.742,-58.3867"/>
</g>
</g>
</svg>
