<?xml version="1.0" encoding="UTF-8" standalone="no"?>
<!DOCTYPE svg PUBLIC "-//W3C//DTD SVG 1.1//EN"
 "http://www.w3.org/Graphics/SVG/1.1/DTD/svg11.dtd">
<!-- Generated by graphviz version 2.38.0 (20140413.2041)
 -->
<!-- Title: G Pages: 1 -->
<svg width="676pt" height="263pt"
 viewBox="0.00 0.00 675.81 263.00" xmlns="http://www.w3.org/2000/svg" xmlns:xlink="http://www.w3.org/1999/xlink">
<g id="graph0" class="graph" transform="scale(1 1) rotate(0) translate(4 259)">
<title>G</title>
<polygon fill="white" stroke="none" points="-4,4 -4,-259 671.809,-259 671.809,4 -4,4"/>
<!-- _bartend -->
<g id="node1" class="node"><title>_bartend</title>
<polygon fill="none" stroke="black" points="289.338,-218.5 289.338,-254.5 358.693,-254.5 358.693,-218.5 289.338,-218.5"/>
<text text-anchor="middle" x="324.016" y="-243.1" font-family="Bitstream Vera Sans" font-size="8.00"> </text>
<polyline fill="none" stroke="black" points="289.338,-236.5 358.693,-236.5 "/>
<text text-anchor="start" x="297.338" y="-225.1" font-family="Bitstream Vera Sans" font-size="8.00">liquids : string[]</text>
</g>
<!-- _bartend_calibrateStart -->
<g id="node2" class="node"><title>_bartend_calibrateStart</title>
<polygon fill="none" stroke="#b64ff7" points="0,-123.5 0,-159.5 92.0312,-159.5 92.0312,-123.5 0,-123.5"/>
<text text-anchor="middle" x="46.0156" y="-148.1" font-family="Bitstream Vera Sans" font-size="8.00">calibrateStart (action)</text>
<polyline fill="none" stroke="#b64ff7" points="0,-141.5 92.0312,-141.5 "/>
<text text-anchor="middle" x="46.0156" y="-130.1" font-family="Bitstream Vera Sans" font-size="8.00"> </text>
</g>
<!-- _bartend&#45;&gt;_bartend_calibrateStart -->
<g id="edge1" class="edge"><title>_bartend&#45;&gt;_bartend_calibrateStart</title>
<path fill="none" stroke="#b64ff7" stroke-dasharray="5,2" d="M289.034,-231.368C243.93,-225.099 163.829,-210.742 101.016,-182 91.6535,-177.716 82.2602,-171.74 73.9526,-165.732"/>
<polygon fill="#b64ff7" stroke="#b64ff7" points="75.825,-162.76 65.7351,-159.528 71.6072,-168.347 75.825,-162.76"/>
</g>
<!-- _bartend_calibrateStop -->
<g id="node3" class="node"><title>_bartend_calibrateStop</title>
<polygon fill="none" stroke="#b64ff7" points="109.764,-101.5 109.764,-181.5 242.268,-181.5 242.268,-101.5 109.764,-101.5"/>
<text text-anchor="middle" x="176.016" y="-171.1" font-family="Bitstream Vera Sans" font-size="8.00">calibrateStop (action)</text>
<polyline fill="none" stroke="#b64ff7" points="109.764,-165.5 242.268,-165.5 "/>
<text text-anchor="middle" x="176.016" y="-155.1" font-family="Bitstream Vera Sans" font-size="8.00">Input</text>
<polyline fill="none" stroke="#b64ff7" points="109.764,-149.5 242.268,-149.5 "/>
<text text-anchor="start" x="117.764" y="-139.1" font-family="Bitstream Vera Sans" font-size="8.00"> &#160;update : boolean</text>
<polyline fill="none" stroke="#b64ff7" points="109.764,-133.5 242.268,-133.5 "/>
<text text-anchor="middle" x="176.016" y="-123.1" font-family="Bitstream Vera Sans" font-size="8.00">Output</text>
<polyline fill="none" stroke="#b64ff7" points="109.764,-117.5 242.268,-117.5 "/>
<text text-anchor="start" x="117.764" y="-107.1" font-family="Bitstream Vera Sans" font-size="8.00"> &#160;timeToVolumeRatio : decimal64</text>
</g>
<!-- _bartend&#45;&gt;_bartend_calibrateStop -->
<g id="edge2" class="edge"><title>_bartend&#45;&gt;_bartend_calibrateStop</title>
<path fill="none" stroke="#b64ff7" stroke-dasharray="5,2" d="M296.87,-218.442C282.742,-209.565 264.744,-198.255 246.979,-187.092"/>
<polygon fill="#b64ff7" stroke="#b64ff7" points="248.624,-183.992 238.295,-181.635 244.9,-189.919 248.624,-183.992"/>
</g>
<!-- _pump -->
<g id="node4" class="node"><title>_pump</title>
<polygon fill="none" stroke="black" points="259.986,-113.5 259.986,-169.5 388.045,-169.5 388.045,-113.5 259.986,-113.5"/>
<text text-anchor="middle" x="324.016" y="-159.1" font-family="Bitstream Vera Sans" font-size="8.00">pump</text>
<polyline fill="none" stroke="black" points="259.986,-153.5 388.045,-153.5 "/>
<text text-anchor="start" x="267.986" y="-143.1" font-family="Bitstream Vera Sans" font-size="8.00">id : int32</text>
<text text-anchor="start" x="267.986" y="-135.1" font-family="Bitstream Vera Sans" font-size="8.00">gpioPin : int32</text>
<text text-anchor="start" x="267.986" y="-127.1" font-family="Bitstream Vera Sans" font-size="8.00">timeToVolumeRatio : decimal64</text>
<text text-anchor="start" x="267.986" y="-119.1" font-family="Bitstream Vera Sans" font-size="8.00">liquid : string</text>
</g>
<!-- _bartend&#45;&gt;_pump -->
<g id="edge7" class="edge"><title>_bartend&#45;&gt;_pump</title>
<path fill="none" stroke="black" d="M324.016,-218.442C324.016,-207.684 324.016,-193.355 324.016,-180.043"/>
<polygon fill="black" stroke="black" points="327.516,-179.673 324.016,-169.673 320.516,-179.673 327.516,-179.673"/>
</g>
<!-- _available -->
<g id="node7" class="node"><title>_available</title>
<polygon fill="none" stroke="black" points="405.895,-123.5 405.895,-159.5 468.137,-159.5 468.137,-123.5 405.895,-123.5"/>
<text text-anchor="middle" x="437.016" y="-148.1" font-family="Bitstream Vera Sans" font-size="8.00">available</text>
<polyline fill="none" stroke="black" points="405.895,-141.5 468.137,-141.5 "/>
<text text-anchor="start" x="413.895" y="-130.1" font-family="Bitstream Vera Sans" font-size="8.00">name : string</text>
</g>
<!-- _bartend&#45;&gt;_available -->
<g id="edge8" class="edge"><title>_bartend&#45;&gt;_available</title>
<path fill="none" stroke="black" d="M349.374,-218.296C363.743,-208.211 381.828,-194.944 397.016,-182 402.506,-177.321 408.159,-172.052 413.425,-166.923"/>
<polygon fill="black" stroke="black" points="416.173,-169.126 420.798,-159.594 411.238,-164.162 416.173,-169.126"/>
</g>
<!-- _recipe -->
<g id="node10" class="node"><title>_recipe</title>
<polygon fill="none" stroke="black" points="485.895,-123.5 485.895,-159.5 548.137,-159.5 548.137,-123.5 485.895,-123.5"/>
<text text-anchor="middle" x="517.016" y="-148.1" font-family="Bitstream Vera Sans" font-size="8.00">recipe</text>
<polyline fill="none" stroke="black" points="485.895,-141.5 548.137,-141.5 "/>
<text text-anchor="start" x="493.895" y="-130.1" font-family="Bitstream Vera Sans" font-size="8.00">name : string</text>
</g>
<!-- _bartend&#45;&gt;_recipe -->
<g id="edge9" class="edge"><title>_bartend&#45;&gt;_recipe</title>
<path fill="none" stroke="black" d="M358.765,-228.023C391.103,-220.018 439.771,-205.234 477.016,-182 483.619,-177.88 489.991,-172.494 495.633,-167.03"/>
<polygon fill="black" stroke="black" points="498.359,-169.248 502.83,-159.643 493.345,-164.364 498.359,-169.248"/>
</g>
<!-- _pump_on -->
<g id="node5" class="node"><title>_pump_on</title>
<polygon fill="none" stroke="#b64ff7" points="231.016,-14.5 231.016,-50.5 285.016,-50.5 285.016,-14.5 231.016,-14.5"/>
<text text-anchor="middle" x="257.914" y="-39.1" font-family="Bitstream Vera Sans" font-size="8.00">on (action)</text>
<polyline fill="none" stroke="#b64ff7" points="231.016,-32.5 284.812,-32.5 "/>
<text text-anchor="middle" x="257.914" y="-21.1" font-family="Bitstream Vera Sans" font-size="8.00"> </text>
</g>
<!-- _pump&#45;&gt;_pump_on -->
<g id="edge3" class="edge"><title>_pump&#45;&gt;_pump_on</title>
<path fill="none" stroke="#b64ff7" stroke-dasharray="5,2" d="M307.361,-113.499C297.115,-96.8882 284.056,-75.7172 273.947,-59.3274"/>
<polygon fill="#b64ff7" stroke="#b64ff7" points="276.899,-57.4468 268.67,-50.7731 270.941,-61.1217 276.899,-57.4468"/>
</g>
<!-- _pump_off -->
<g id="node6" class="node"><title>_pump_off</title>
<polygon fill="none" stroke="#b64ff7" points="303.016,-14.5 303.016,-50.5 357.016,-50.5 357.016,-14.5 303.016,-14.5"/>
<text text-anchor="middle" x="329.842" y="-39.1" font-family="Bitstream Vera Sans" font-size="8.00">off (action)</text>
<polyline fill="none" stroke="#b64ff7" points="303.016,-32.5 356.668,-32.5 "/>
<text text-anchor="middle" x="329.842" y="-21.1" font-family="Bitstream Vera Sans" font-size="8.00"> </text>
</g>
<!-- _pump&#45;&gt;_pump_off -->
<g id="edge4" class="edge"><title>_pump&#45;&gt;_pump_off</title>
<path fill="none" stroke="#b64ff7" stroke-dasharray="5,2" d="M325.53,-113.499C326.427,-97.5034 327.561,-77.2792 328.464,-61.1677"/>
<polygon fill="#b64ff7" stroke="#b64ff7" points="331.982,-60.9534 329.047,-50.7731 324.993,-60.5615 331.982,-60.9534"/>
</g>
<!-- _available_make -->
<g id="node8" class="node"><title>_available_make</title>
<polygon fill="none" stroke="#b64ff7" points="385.785,-14.5 385.785,-50.5 450.246,-50.5 450.246,-14.5 385.785,-14.5"/>
<text text-anchor="middle" x="418.016" y="-39.1" font-family="Bitstream Vera Sans" font-size="8.00">make (action)</text>
<polyline fill="none" stroke="#b64ff7" points="385.785,-32.5 450.246,-32.5 "/>
<text text-anchor="middle" x="418.016" y="-21.1" font-family="Bitstream Vera Sans" font-size="8.00"> </text>
</g>
<!-- _available&#45;&gt;_available_make -->
<g id="edge5" class="edge"><title>_available&#45;&gt;_available_make</title>
<path fill="none" stroke="#b64ff7" stroke-dasharray="5,2" d="M433.963,-123.309C430.957,-106.383 426.322,-80.2779 422.822,-60.5665"/>
<polygon fill="#b64ff7" stroke="#b64ff7" points="426.255,-59.8828 421.061,-50.6487 419.363,-61.1067 426.255,-59.8828"/>
</g>
<!-- _available_name__ingredient -->
<g id="node9" class="node"><title>_available_name__ingredient</title>
<polygon fill="none" stroke="black" points="468.107,-12.5 468.107,-52.5 553.924,-52.5 553.924,-12.5 468.107,-12.5"/>
<text text-anchor="middle" x="511.016" y="-42.1" font-family="Bitstream Vera Sans" font-size="8.00">ingredient</text>
<polyline fill="none" stroke="black" points="468.107,-36.5 553.924,-36.5 "/>
<text text-anchor="start" x="476.107" y="-26.1" font-family="Bitstream Vera Sans" font-size="8.00">liquid : string</text>
<text text-anchor="start" x="476.107" y="-18.1" font-family="Bitstream Vera Sans" font-size="8.00">amount : decimal64</text>
</g>
<!-- _available&#45;&gt;_available_name__ingredient -->
<g id="edge10" class="edge"><title>_available&#45;&gt;_available_name__ingredient</title>
<path fill="none" stroke="black" d="M448.905,-123.309C460.507,-106.533 478.346,-80.7384 491.934,-61.0904"/>
<polygon fill="black" stroke="black" points="494.844,-63.0363 497.654,-52.8207 489.087,-59.0546 494.844,-63.0363"/>
</g>
<!-- _recipe&#45;&gt;_available_name__ingredient -->
<g id="edge11" class="edge"><title>_recipe&#45;&gt;_available_name__ingredient</title>
<path fill="none" stroke="black" d="M516.052,-123.309C515.14,-107.059 513.755,-82.3489 512.667,-62.9584"/>
<polygon fill="black" stroke="black" points="516.154,-62.6091 512.099,-52.8207 509.164,-63.001 516.154,-62.6091"/>
</g>
<!-- _recipe_make -->
<g id="node11" class="node"><title>_recipe_make</title>
<polygon fill="none" stroke="#b64ff7" points="572.223,-0.5 572.223,-64.5 667.809,-64.5 667.809,-0.5 572.223,-0.5"/>
<text text-anchor="middle" x="620.016" y="-54.1" font-family="Bitstream Vera Sans" font-size="8.00">make (action)</text>
<polyline fill="none" stroke="#b64ff7" points="572.223,-48.5 667.809,-48.5 "/>
<text text-anchor="middle" x="620.016" y="-38.1" font-family="Bitstream Vera Sans" font-size="8.00">Input</text>
<polyline fill="none" stroke="#b64ff7" points="572.223,-32.5 667.809,-32.5 "/>
<text text-anchor="start" x="580.223" y="-22.1" font-family="Bitstream Vera Sans" font-size="8.00"> &#160;multiplier : decimal64</text>
<polyline fill="none" stroke="#b64ff7" points="572.223,-16.5 667.809,-16.5 "/>
<text text-anchor="middle" x="620.016" y="-6.1" font-family="Bitstream Vera Sans" font-size="8.00"> </text>
</g>
<!-- _recipe&#45;&gt;_recipe_make -->
<g id="edge6" class="edge"><title>_recipe&#45;&gt;_recipe_make</title>
<path fill="none" stroke="#b64ff7" stroke-dasharray="5,2" d="M533.564,-123.309C546.8,-109.559 565.867,-89.751 582.729,-72.2343"/>
<polygon fill="#b64ff7" stroke="#b64ff7" points="585.384,-74.5236 589.797,-64.8918 580.341,-69.669 585.384,-74.5236"/>
</g>
</g>
</svg>
