<?xml version="1.0" encoding="UTF-8" standalone="no"?>
<!DOCTYPE svg PUBLIC "-//W3C//DTD SVG 1.1//EN"
 "http://www.w3.org/Graphics/SVG/1.1/DTD/svg11.dtd">
<!-- Generated by graphviz version 2.40.1 (20161225.0304)
 -->
<!-- Title: G Pages: 1 -->
<svg width="421pt" height="328pt"
 viewBox="0.00 0.00 420.59 328.00" xmlns="http://www.w3.org/2000/svg" xmlns:xlink="http://www.w3.org/1999/xlink">
<g id="graph0" class="graph" transform="scale(1 1) rotate(0) translate(4 324)">
<title>G</title>
<polygon fill="#ffffff" stroke="transparent" points="-4,4 -4,-324 416.5859,-324 416.5859,4 -4,4"/>
<!-- restconf -->
<g id="node1" class="node">
<title>restconf</title>
<polygon fill="none" stroke="#000000" points="107.457,-263.5 107.457,-319.5 241,-319.5 241,-263.5 107.457,-263.5"/>
<text text-anchor="middle" x="174.2285" y="-309.1" font-family="Bitstream Vera Sans" font-size="8.00" fill="#000000"> </text>
<polyline fill="none" stroke="#000000" points="107.457,-303.5 241,-303.5 "/>
<text text-anchor="start" x="115.457" y="-293.1" font-family="Bitstream Vera Sans" font-size="8.00" fill="#000000">notifyKeepaliveTimeoutMs : int32</text>
<text text-anchor="start" x="115.457" y="-285.1" font-family="Bitstream Vera Sans" font-size="8.00" fill="#000000">debug : boolean</text>
<text text-anchor="start" x="115.457" y="-277.1" font-family="Bitstream Vera Sans" font-size="8.00" fill="#000000">streamCount : int32</text>
<text text-anchor="start" x="115.457" y="-269.1" font-family="Bitstream Vera Sans" font-size="8.00" fill="#000000">subscriptionCount : int32</text>
</g>
<!-- restconf_web -->
<g id="node2" class="node">
<title>restconf_web</title>
<polygon fill="none" stroke="#000000" points="79.4727,-166.5 79.4727,-214.5 164.9844,-214.5 164.9844,-166.5 79.4727,-166.5"/>
<text text-anchor="middle" x="122.2285" y="-204.1" font-family="Bitstream Vera Sans" font-size="8.00" fill="#000000">web</text>
<polyline fill="none" stroke="#000000" points="79.4727,-198.5 164.9844,-198.5 "/>
<text text-anchor="start" x="87.4727" y="-188.1" font-family="Bitstream Vera Sans" font-size="8.00" fill="#000000">port : string</text>
<text text-anchor="start" x="87.4727" y="-180.1" font-family="Bitstream Vera Sans" font-size="8.00" fill="#000000">readTimeout : int32</text>
<text text-anchor="start" x="87.4727" y="-172.1" font-family="Bitstream Vera Sans" font-size="8.00" fill="#000000">writeTimeout : int32</text>
</g>
<!-- restconf&#45;&gt;restconf_web -->
<g id="edge4" class="edge">
<title>restconf&#45;&gt;restconf_web</title>
<path fill="none" stroke="#000000" d="M159.7436,-263.3659C153.4079,-251.06 145.929,-236.5336 139.3226,-223.702"/>
<polygon fill="#000000" stroke="#000000" points="142.3845,-222.0028 134.6952,-214.7141 136.1609,-225.2071 142.3845,-222.0028"/>
</g>
<!-- restconf_callHome -->
<g id="node6" class="node">
<title>restconf_callHome</title>
<polygon fill="none" stroke="#000000" points="205.2129,-154.5 205.2129,-226.5 293.2441,-226.5 293.2441,-154.5 205.2129,-154.5"/>
<text text-anchor="middle" x="249.2285" y="-216.1" font-family="Bitstream Vera Sans" font-size="8.00" fill="#000000">callHome</text>
<polyline fill="none" stroke="#000000" points="205.2129,-210.5 293.2441,-210.5 "/>
<text text-anchor="start" x="213.2129" y="-200.1" font-family="Bitstream Vera Sans" font-size="8.00" fill="#000000">registered : boolean</text>
<text text-anchor="start" x="213.2129" y="-192.1" font-family="Bitstream Vera Sans" font-size="8.00" fill="#000000">deviceId : string</text>
<text text-anchor="start" x="213.2129" y="-184.1" font-family="Bitstream Vera Sans" font-size="8.00" fill="#000000">address : string</text>
<text text-anchor="start" x="213.2129" y="-176.1" font-family="Bitstream Vera Sans" font-size="8.00" fill="#000000">endpoint : string</text>
<text text-anchor="start" x="213.2129" y="-168.1" font-family="Bitstream Vera Sans" font-size="8.00" fill="#000000">localAddress : string</text>
<text text-anchor="start" x="213.2129" y="-160.1" font-family="Bitstream Vera Sans" font-size="8.00" fill="#000000">retryRateMs : int32</text>
</g>
<!-- restconf&#45;&gt;restconf_callHome -->
<g id="edge5" class="edge">
<title>restconf&#45;&gt;restconf_callHome</title>
<path fill="none" stroke="#000000" d="M195.1202,-263.3659C201.6895,-254.5193 209.1108,-244.5251 216.3042,-234.838"/>
<polygon fill="#000000" stroke="#000000" points="219.1175,-236.9202 222.2693,-226.805 213.4975,-232.7469 219.1175,-236.9202"/>
</g>
<!-- restconf_web_tls -->
<g id="node3" class="node">
<title>restconf_web_tls</title>
<polygon fill="none" stroke="#000000" points="34.3301,-79.5 34.3301,-115.5 120.127,-115.5 120.127,-79.5 34.3301,-79.5"/>
<text text-anchor="middle" x="77.2285" y="-104.1" font-family="Bitstream Vera Sans" font-size="8.00" fill="#000000">tls</text>
<polyline fill="none" stroke="#000000" points="34.3301,-97.5 120.127,-97.5 "/>
<text text-anchor="start" x="42.3301" y="-86.1" font-family="Bitstream Vera Sans" font-size="8.00" fill="#000000">serverName : string</text>
</g>
<!-- restconf_web&#45;&gt;restconf_web_tls -->
<g id="edge6" class="edge">
<title>restconf_web&#45;&gt;restconf_web_tls</title>
<path fill="none" stroke="#000000" d="M110.4053,-166.0653C104.2447,-153.3334 96.6939,-137.7284 90.3529,-124.6238"/>
<polygon fill="#000000" stroke="#000000" points="93.4929,-123.0774 85.9867,-115.6003 87.1918,-126.1264 93.4929,-123.0774"/>
</g>
<!-- restconf_web_tls_cert -->
<g id="node4" class="node">
<title>restconf_web_tls_cert</title>
<polygon fill="none" stroke="#000000" points="0,-.5 0,-40.5 68.457,-40.5 68.457,-.5 0,-.5"/>
<text text-anchor="middle" x="34.2285" y="-30.1" font-family="Bitstream Vera Sans" font-size="8.00" fill="#000000">cert</text>
<polyline fill="none" stroke="#000000" points="0,-24.5 68.457,-24.5 "/>
<text text-anchor="start" x="8" y="-14.1" font-family="Bitstream Vera Sans" font-size="8.00" fill="#000000">certFile : string</text>
<text text-anchor="start" x="8" y="-6.1" font-family="Bitstream Vera Sans" font-size="8.00" fill="#000000">keyFile : string</text>
</g>
<!-- restconf_web_tls&#45;&gt;restconf_web_tls_cert -->
<g id="edge7" class="edge">
<title>restconf_web_tls&#45;&gt;restconf_web_tls_cert</title>
<path fill="none" stroke="#000000" d="M67.0381,-79.2521C62.0563,-70.3312 55.942,-59.3822 50.3472,-49.3637"/>
<polygon fill="#000000" stroke="#000000" points="53.3342,-47.5338 45.4026,-40.5095 47.2225,-50.9468 53.3342,-47.5338"/>
</g>
<!-- restconf_web_tls_ca -->
<g id="node5" class="node">
<title>restconf_web_tls_ca</title>
<polygon fill="none" stroke="#000000" points="86,-2.5 86,-38.5 154.457,-38.5 154.457,-2.5 86,-2.5"/>
<text text-anchor="middle" x="120.2285" y="-27.1" font-family="Bitstream Vera Sans" font-size="8.00" fill="#000000">ca</text>
<polyline fill="none" stroke="#000000" points="86,-20.5 154.457,-20.5 "/>
<text text-anchor="start" x="94" y="-9.1" font-family="Bitstream Vera Sans" font-size="8.00" fill="#000000">certFile : string</text>
</g>
<!-- restconf_web_tls&#45;&gt;restconf_web_tls_ca -->
<g id="edge8" class="edge">
<title>restconf_web_tls&#45;&gt;restconf_web_tls_ca</title>
<path fill="none" stroke="#000000" d="M87.4189,-79.2521C92.7205,-69.7586 99.3046,-57.9684 105.1803,-47.4469"/>
<polygon fill="#000000" stroke="#000000" points="108.2913,-49.0543 110.1113,-38.6169 102.1797,-45.6413 108.2913,-49.0543"/>
</g>
<!-- restconf_callHome_unregister -->
<g id="node7" class="node">
<title>restconf_callHome_unregister</title>
<polygon fill="none" stroke="#b64ff7" points="137.9922,-79.5 137.9922,-115.5 218.4648,-115.5 218.4648,-79.5 137.9922,-79.5"/>
<text text-anchor="middle" x="178.2285" y="-104.1" font-family="Bitstream Vera Sans" font-size="8.00" fill="#000000">unregister (action)</text>
<polyline fill="none" stroke="#b64ff7" points="137.9922,-97.5 218.4648,-97.5 "/>
<text text-anchor="middle" x="178.2285" y="-86.1" font-family="Bitstream Vera Sans" font-size="8.00" fill="#000000"> </text>
</g>
<!-- restconf_callHome&#45;&gt;restconf_callHome_unregister -->
<g id="edge1" class="edge">
<title>restconf_callHome&#45;&gt;restconf_callHome_unregister</title>
<path fill="none" stroke="#b64ff7" stroke-dasharray="5,2" d="M221.5748,-154.2775C213.7448,-144.0214 205.3788,-133.0631 198.1057,-123.5363"/>
<polygon fill="#b64ff7" stroke="#b64ff7" points="200.8866,-121.4111 192.0365,-115.5865 195.3227,-125.6588 200.8866,-121.4111"/>
</g>
<!-- restconf_callHome_register -->
<g id="node8" class="node">
<title>restconf_callHome_register</title>
<polygon fill="none" stroke="#b64ff7" points="236.4414,-79.5 236.4414,-115.5 308.0156,-115.5 308.0156,-79.5 236.4414,-79.5"/>
<text text-anchor="middle" x="272.2285" y="-104.1" font-family="Bitstream Vera Sans" font-size="8.00" fill="#000000">register (action)</text>
<polyline fill="none" stroke="#b64ff7" points="236.4414,-97.5 308.0156,-97.5 "/>
<text text-anchor="middle" x="272.2285" y="-86.1" font-family="Bitstream Vera Sans" font-size="8.00" fill="#000000"> </text>
</g>
<!-- restconf_callHome&#45;&gt;restconf_callHome_register -->
<g id="edge2" class="edge">
<title>restconf_callHome&#45;&gt;restconf_callHome_register</title>
<path fill="none" stroke="#b64ff7" stroke-dasharray="5,2" d="M258.1868,-154.2775C260.5439,-144.7465 263.051,-134.6092 265.2845,-125.5779"/>
<polygon fill="#b64ff7" stroke="#b64ff7" points="268.7523,-126.1343 267.7555,-115.5865 261.957,-124.4537 268.7523,-126.1343"/>
</g>
<!-- restconf_callHome_update -->
<g id="node9" class="node">
<title>restconf_callHome_update</title>
<polygon fill="none" stroke="#4fb32e" points="325.8711,-77.5 325.8711,-117.5 412.5859,-117.5 412.5859,-77.5 325.8711,-77.5"/>
<text text-anchor="middle" x="369.2285" y="-107.1" font-family="Bitstream Vera Sans" font-size="8.00" fill="#000000">update (notification)</text>
<polyline fill="none" stroke="#4fb32e" points="325.8711,-101.5 412.5859,-101.5 "/>
<text text-anchor="start" x="333.8711" y="-91.1" font-family="Bitstream Vera Sans" font-size="8.00" fill="#000000">registered : boolean</text>
<text text-anchor="start" x="333.8711" y="-83.1" font-family="Bitstream Vera Sans" font-size="8.00" fill="#000000">err : string</text>
</g>
<!-- restconf_callHome&#45;&gt;restconf_callHome_update -->
<g id="edge3" class="edge">
<title>restconf_callHome&#45;&gt;restconf_callHome_update</title>
<path fill="none" stroke="#4fb32e" stroke-dasharray="5,2" d="M293.5711,-156.1345C307.2631,-145.5232 322.1247,-134.0054 335.0223,-124.0098"/>
<polygon fill="#4fb32e" stroke="#4fb32e" points="337.4221,-126.5781 343.1822,-117.6859 333.134,-121.0452 337.4221,-126.5781"/>
</g>
</g>
</svg>
