<?xml version="1.0" encoding="UTF-8" standalone="no"?>
<!DOCTYPE svg PUBLIC "-//W3C//DTD SVG 1.1//EN"
 "http://www.w3.org/Graphics/SVG/1.1/DTD/svg11.dtd">
<!-- Generated by graphviz version 2.40.1 (20161225.0304)
 -->
<!-- Title: G Pages: 1 -->
<svg width="422pt" height="328pt"
 viewBox="0.00 0.00 421.59 328.00" xmlns="http://www.w3.org/2000/svg" xmlns:xlink="http://www.w3.org/1999/xlink">
<g id="graph0" class="graph" transform="scale(1 1) rotate(0) translate(4 324)">
<title>G</title>
<polygon fill="#ffffff" stroke="transparent" points="-4,4 -4,-324 417.5859,-324 417.5859,4 -4,4"/>
<!-- restconf -->
<g id="node1" class="node">
<title>restconf</title>
<polygon fill="none" stroke="#000000" points="105.457,-263.5 105.457,-319.5 239,-319.5 239,-263.5 105.457,-263.5"/>
<text text-anchor="middle" x="172.2285" y="-309.1" font-family="Bitstream Vera Sans" font-size="8.00" fill="#000000"> </text>
<polyline fill="none" stroke="#000000" points="105.457,-303.5 239,-303.5 "/>
<text text-anchor="start" x="113.457" y="-293.1" font-family="Bitstream Vera Sans" font-size="8.00" fill="#000000">notifyKeepaliveTimeoutMs : int32</text>
<text text-anchor="start" x="113.457" y="-285.1" font-family="Bitstream Vera Sans" font-size="8.00" fill="#000000">debug : boolean</text>
<text text-anchor="start" x="113.457" y="-277.1" font-family="Bitstream Vera Sans" font-size="8.00" fill="#000000">streamCount : int32</text>
<text text-anchor="start" x="113.457" y="-269.1" font-family="Bitstream Vera Sans" font-size="8.00" fill="#000000">subscriptionCount : int32</text>
</g>
<!-- restconf_web -->
<g id="node2" class="node">
<title>restconf_web</title>
<polygon fill="none" stroke="#000000" points="77.4727,-166.5 77.4727,-214.5 162.9844,-214.5 162.9844,-166.5 77.4727,-166.5"/>
<text text-anchor="middle" x="120.2285" y="-204.1" font-family="Bitstream Vera Sans" font-size="8.00" fill="#000000">web</text>
<polyline fill="none" stroke="#000000" points="77.4727,-198.5 162.9844,-198.5 "/>
<text text-anchor="start" x="85.4727" y="-188.1" font-family="Bitstream Vera Sans" font-size="8.00" fill="#000000">port : string</text>
<text text-anchor="start" x="85.4727" y="-180.1" font-family="Bitstream Vera Sans" font-size="8.00" fill="#000000">readTimeout : int32</text>
<text text-anchor="start" x="85.4727" y="-172.1" font-family="Bitstream Vera Sans" font-size="8.00" fill="#000000">writeTimeout : int32</text>
</g>
<!-- restconf&#45;&gt;restconf_web -->
<g id="edge4" class="edge">
<title>restconf&#45;&gt;restconf_web</title>
<path fill="none" stroke="#000000" d="M157.7436,-263.3659C151.4079,-251.06 143.929,-236.5336 137.3226,-223.702"/>
<polygon fill="#000000" stroke="#000000" points="140.3845,-222.0028 132.6952,-214.7141 134.1609,-225.2071 140.3845,-222.0028"/>
</g>
<!-- restconf_callHome -->
<g id="node6" class="node">
<title>restconf_callHome</title>
<polygon fill="none" stroke="#000000" points="202.2129,-154.5 202.2129,-226.5 290.2441,-226.5 290.2441,-154.5 202.2129,-154.5"/>
<text text-anchor="middle" x="246.2285" y="-216.1" font-family="Bitstream Vera Sans" font-size="8.00" fill="#000000">callHome</text>
<polyline fill="none" stroke="#000000" points="202.2129,-210.5 290.2441,-210.5 "/>
<text text-anchor="start" x="210.2129" y="-200.1" font-family="Bitstream Vera Sans" font-size="8.00" fill="#000000">registered : boolean</text>
<text text-anchor="start" x="210.2129" y="-192.1" font-family="Bitstream Vera Sans" font-size="8.00" fill="#000000">deviceId : string</text>
<text text-anchor="start" x="210.2129" y="-184.1" font-family="Bitstream Vera Sans" font-size="8.00" fill="#000000">address : string</text>
<text text-anchor="start" x="210.2129" y="-176.1" font-family="Bitstream Vera Sans" font-size="8.00" fill="#000000">endpoint : string</text>
<text text-anchor="start" x="210.2129" y="-168.1" font-family="Bitstream Vera Sans" font-size="8.00" fill="#000000">localAddress : string</text>
<text text-anchor="start" x="210.2129" y="-160.1" font-family="Bitstream Vera Sans" font-size="8.00" fill="#000000">retryRateMs : int32</text>
</g>
<!-- restconf&#45;&gt;restconf_callHome -->
<g id="edge5" class="edge">
<title>restconf&#45;&gt;restconf_callHome</title>
<path fill="none" stroke="#000000" d="M192.8416,-263.3659C199.2585,-254.6077 206.4994,-244.7249 213.5302,-235.1287"/>
<polygon fill="#000000" stroke="#000000" points="216.5419,-236.9402 219.6288,-226.805 210.8953,-232.8031 216.5419,-236.9402"/>
</g>
<!-- restconf_web_tls -->
<g id="node3" class="node">
<title>restconf_web_tls</title>
<polygon fill="none" stroke="#000000" points="34.3301,-79.5 34.3301,-115.5 120.127,-115.5 120.127,-79.5 34.3301,-79.5"/>
<text text-anchor="middle" x="77.2285" y="-104.1" font-family="Bitstream Vera Sans" font-size="8.00" fill="#000000">tls</text>
<polyline fill="none" stroke="#000000" points="34.3301,-97.5 120.127,-97.5 "/>
<text text-anchor="start" x="42.3301" y="-86.1" font-family="Bitstream Vera Sans" font-size="8.00" fill="#000000">serverName : string</text>
</g>
<!-- restconf_web&#45;&gt;restconf_web_tls -->
<g id="edge6" class="edge">
<title>restconf_web&#45;&gt;restconf_web_tls</title>
<path fill="none" stroke="#000000" d="M108.9308,-166.0653C103.1011,-153.457 95.9687,-138.0311 89.9464,-125.0062"/>
<polygon fill="#000000" stroke="#000000" points="92.9712,-123.2081 85.5975,-115.6003 86.6174,-126.1459 92.9712,-123.2081"/>
</g>
<!-- restconf_web_tls_cert -->
<g id="node4" class="node">
<title>restconf_web_tls_cert</title>
<polygon fill="none" stroke="#000000" points="0,-.5 0,-40.5 68.457,-40.5 68.457,-.5 0,-.5"/>
<text text-anchor="middle" x="34.2285" y="-30.1" font-family="Bitstream Vera Sans" font-size="8.00" fill="#000000">cert</text>
<polyline fill="none" stroke="#000000" points="0,-24.5 68.457,-24.5 "/>
<text text-anchor="start" x="8" y="-14.1" font-family="Bitstream Vera Sans" font-size="8.00" fill="#000000">certFile : string</text>
<text text-anchor="start" x="8" y="-6.1" font-family="Bitstream Vera Sans" font-size="8.00" fill="#000000">keyFile : string</text>
</g>
<!-- restconf_web_tls&#45;&gt;restconf_web_tls_cert -->
<g id="edge7" class="edge">
<title>restconf_web_tls&#45;&gt;restconf_web_tls_cert</title>
<path fill="none" stroke="#000000" d="M67.0381,-79.2521C62.0563,-70.3312 55.942,-59.3822 50.3472,-49.3637"/>
<polygon fill="#000000" stroke="#000000" points="53.3342,-47.5338 45.4026,-40.5095 47.2225,-50.9468 53.3342,-47.5338"/>
</g>
<!-- restconf_web_tls_ca -->
<g id="node5" class="node">
<title>restconf_web_tls_ca</title>
<polygon fill="none" stroke="#000000" points="86,-2.5 86,-38.5 154.457,-38.5 154.457,-2.5 86,-2.5"/>
<text text-anchor="middle" x="120.2285" y="-27.1" font-family="Bitstream Vera Sans" font-size="8.00" fill="#000000">ca</text>
<polyline fill="none" stroke="#000000" points="86,-20.5 154.457,-20.5 "/>
<text text-anchor="start" x="94" y="-9.1" font-family="Bitstream Vera Sans" font-size="8.00" fill="#000000">certFile : string</text>
</g>
<!-- restconf_web_tls&#45;&gt;restconf_web_tls_ca -->
<g id="edge8" class="edge">
<title>restconf_web_tls&#45;&gt;restconf_web_tls_ca</title>
<path fill="none" stroke="#000000" d="M87.4189,-79.2521C92.7205,-69.7586 99.3046,-57.9684 105.1803,-47.4469"/>
<polygon fill="#000000" stroke="#000000" points="108.2913,-49.0543 110.1113,-38.6169 102.1797,-45.6413 108.2913,-49.0543"/>
</g>
<!-- restconf_callHome_register -->
<g id="node7" class="node">
<title>restconf_callHome_register</title>
<polygon fill="none" stroke="#b64ff7" points="138.4414,-79.5 138.4414,-115.5 210.0156,-115.5 210.0156,-79.5 138.4414,-79.5"/>
<text text-anchor="middle" x="174.2285" y="-104.1" font-family="Bitstream Vera Sans" font-size="8.00" fill="#000000">register (action)</text>
<polyline fill="none" stroke="#b64ff7" points="138.4414,-97.5 210.0156,-97.5 "/>
<text text-anchor="middle" x="174.2285" y="-86.1" font-family="Bitstream Vera Sans" font-size="8.00" fill="#000000"> </text>
</g>
<!-- restconf_callHome&#45;&gt;restconf_callHome_register -->
<g id="edge1" class="edge">
<title>restconf_callHome&#45;&gt;restconf_callHome_register</title>
<path fill="none" stroke="#b64ff7" stroke-dasharray="5,2" d="M218.1853,-154.2775C210.2451,-144.0214 201.7612,-133.0631 194.3857,-123.5363"/>
<polygon fill="#b64ff7" stroke="#b64ff7" points="197.1203,-121.3511 188.2309,-115.5865 191.5852,-125.6363 197.1203,-121.3511"/>
</g>
<!-- restconf_callHome_unregister -->
<g id="node8" class="node">
<title>restconf_callHome_unregister</title>
<polygon fill="none" stroke="#b64ff7" points="227.9922,-79.5 227.9922,-115.5 308.4648,-115.5 308.4648,-79.5 227.9922,-79.5"/>
<text text-anchor="middle" x="268.2285" y="-104.1" font-family="Bitstream Vera Sans" font-size="8.00" fill="#000000">unregister (action)</text>
<polyline fill="none" stroke="#b64ff7" points="227.9922,-97.5 308.4648,-97.5 "/>
<text text-anchor="middle" x="268.2285" y="-86.1" font-family="Bitstream Vera Sans" font-size="8.00" fill="#000000"> </text>
</g>
<!-- restconf_callHome&#45;&gt;restconf_callHome_unregister -->
<g id="edge2" class="edge">
<title>restconf_callHome&#45;&gt;restconf_callHome_unregister</title>
<path fill="none" stroke="#b64ff7" stroke-dasharray="5,2" d="M254.7973,-154.2775C257.0519,-144.7465 259.45,-134.6092 261.5864,-125.5779"/>
<polygon fill="#b64ff7" stroke="#b64ff7" points="265.0539,-126.1236 263.95,-115.5865 258.2419,-124.5121 265.0539,-126.1236"/>
</g>
<!-- restconf_callHome_update -->
<g id="node9" class="node">
<title>restconf_callHome_update</title>
<polygon fill="none" stroke="#4fb32e" points="326.8711,-77.5 326.8711,-117.5 413.5859,-117.5 413.5859,-77.5 326.8711,-77.5"/>
<text text-anchor="middle" x="370.2285" y="-107.1" font-family="Bitstream Vera Sans" font-size="8.00" fill="#000000">update (notification)</text>
<polyline fill="none" stroke="#4fb32e" points="326.8711,-101.5 413.5859,-101.5 "/>
<text text-anchor="start" x="334.8711" y="-91.1" font-family="Bitstream Vera Sans" font-size="8.00" fill="#000000">registered : boolean</text>
<text text-anchor="start" x="334.8711" y="-83.1" font-family="Bitstream Vera Sans" font-size="8.00" fill="#000000">err : string</text>
</g>
<!-- restconf_callHome&#45;&gt;restconf_callHome_update -->
<g id="edge3" class="edge">
<title>restconf_callHome&#45;&gt;restconf_callHome_update</title>
<path fill="none" stroke="#4fb32e" stroke-dasharray="5,2" d="M290.2954,-157.4498C304.9378,-146.468 321.0402,-134.3912 334.9318,-123.9726"/>
<polygon fill="#4fb32e" stroke="#4fb32e" points="337.3626,-126.5244 343.2627,-117.7244 333.1626,-120.9244 337.3626,-126.5244"/>
</g>
</g>
</svg>
